<svg width="27" height="27" viewBox="0 0 27 27" fill="none" xmlns="http://www.w3.org/2000/svg">
<g clip-path="url(#clip0)">
<path d="M25.0897 22.0314L23.2457 18.9595C22.3956 17.5416 21.9459 15.9188 21.9459 14.2647V11.5739C21.9459 7.43189 18.5745 4.06055 14.4325 4.06055C10.2906 4.06055 6.91922 7.43189 6.91922 11.5739V14.2647C6.91922 15.9188 6.46947 17.5416 5.61939 18.9595L3.77539 22.0314C3.67557 22.1966 3.67341 22.4038 3.76789 22.5713C3.86344 22.7398 4.04265 22.8439 4.23585 22.8439H24.6292C24.8224 22.8439 25.0016 22.7398 25.0971 22.5713C25.1916 22.4038 25.1895 22.1966 25.0897 22.0314ZM5.18364 21.7705L6.53926 19.5112C7.49021 17.9269 7.99253 16.113 7.99253 14.2647V11.5739C7.99253 8.0222 10.8809 5.13386 14.4325 5.13386C17.9842 5.13386 20.8725 8.0222 20.8725 11.5739V14.2647C20.8725 16.113 21.3749 17.9269 22.3248 19.5112L23.6814 21.7705H5.18364Z" fill="#B2B3B5"/>
<path d="M14.1467 0.303833C12.9628 0.303833 12 1.26661 12 2.45052V4.5972C12 4.89339 12.2404 5.13383 12.5367 5.13383C12.8329 5.13383 13.0734 4.89339 13.0734 4.59715V2.45052C13.0734 1.85804 13.5542 1.3772 14.1467 1.3772C14.7392 1.3772 15.22 1.85804 15.22 2.45052V4.5972C15.22 4.89339 15.4604 5.13383 15.7567 5.13383C16.0529 5.13383 16.2934 4.89339 16.2934 4.59715V2.45052C16.2934 1.26661 15.3306 0.303833 14.1467 0.303833Z" fill="#B2B3B5"/>
<path d="M15.9015 22.0356C15.7502 21.7801 15.4228 21.6964 15.1663 21.8434C14.9098 21.9937 14.824 22.3232 14.9742 22.5787C15.1137 22.8159 15.1899 23.1003 15.1899 23.3804C15.1899 24.2681 14.4676 24.9904 13.5799 24.9904C12.6923 24.9904 11.9699 24.2681 11.9699 23.3804C11.9699 23.1003 12.0462 22.8159 12.1857 22.5787C12.3348 22.3221 12.249 21.9937 11.9935 21.8434C11.7349 21.6964 11.4085 21.7801 11.2583 22.0356C11.0211 22.4413 10.8955 22.906 10.8955 23.3805C10.8956 24.8606 12.0987 26.0638 13.5789 26.0638C15.059 26.0638 16.2622 24.8606 16.2644 23.3805C16.2644 22.906 16.1388 22.4413 15.9015 22.0356Z" fill="#B2B3B5"/>
</g>
<defs>
<clipPath id="clip0">
<rect width="25.76" height="25.76" fill="#B2B3B5" transform="translate(0.69873 0.303833)"/>
</clipPath>
</defs>
</svg>
