<svg xmlns="http://www.w3.org/2000/svg" width="218.494" height="43" viewBox="0 0 218.494 43">
  <g id="logo" transform="translate(-140.511 -102)">
    <path id="Path_961" data-name="Path 961" d="M3.2,12V2.452H.273v-2h8.12v2H5.46V12Zm12.635,0V.45H18.1V5.217h4.319V.45h2.261V12H22.421V7.2H18.1V12Zm17.6,0V.45h6.426V2.438H35.707V5.217H39.7V7.2h-3.99v2.807h4.158V12Zm19.782.224a5.6,5.6,0,0,1-2.268-.462A5.791,5.791,0,0,1,49.1,10.477a6.044,6.044,0,0,1-1.7-4.246,6.044,6.044,0,0,1,1.7-4.245A5.791,5.791,0,0,1,50.953.7a5.8,5.8,0,0,1,4.536,0,5.791,5.791,0,0,1,1.855,1.285,6.044,6.044,0,0,1,1.7,4.245,6.044,6.044,0,0,1-1.7,4.246,5.791,5.791,0,0,1-1.855,1.285A5.6,5.6,0,0,1,53.221,12.224Zm-.007-2.184a3.243,3.243,0,0,0,1.358-.28,3.184,3.184,0,0,0,1.071-.791,3.673,3.673,0,0,0,.707-1.207,4.466,4.466,0,0,0,.252-1.53A4.466,4.466,0,0,0,56.35,4.7a3.673,3.673,0,0,0-.707-1.207A3.184,3.184,0,0,0,54.572,2.7a3.408,3.408,0,0,0-2.706,0,3.175,3.175,0,0,0-1.074.791,3.625,3.625,0,0,0-.7,1.207,4.523,4.523,0,0,0-.248,1.529,4.523,4.523,0,0,0,.248,1.53,3.625,3.625,0,0,0,.7,1.207,3.175,3.175,0,0,0,1.074.791A3.233,3.233,0,0,0,53.214,10.04ZM66.948,12V.45h3.934a4.72,4.72,0,0,1,2.054.417,3.126,3.126,0,0,1,1.351,1.2,3.522,3.522,0,0,1,.479,1.88,3.829,3.829,0,0,1-.308,1.564,3.162,3.162,0,0,1-.882,1.173,3.742,3.742,0,0,1-1.393.707L75.964,12H73.087L69.755,7.646h-.539V12Zm2.268-6.244h.966a3.13,3.13,0,0,0,1.2-.2,1.617,1.617,0,0,0,.753-.6,1.676,1.676,0,0,0,.262-.949,1.543,1.543,0,0,0-.577-1.292,2.6,2.6,0,0,0-1.634-.451h-.966ZM83.111,12V.45h6.426V2.438H85.379V5.217h3.99V7.2h-3.99v2.807h4.158V12Zm14.266,0L98.525.45h2.408l2.758,7.224L106.449.45h2.408L110,12h-2.268l-.714-7.476-2.639,7.189h-1.393l-2.632-7.189L99.638,12Z" transform="translate(249 117)" fill="#e9e9e9"/>
    <path id="Path_960" data-name="Path 960" d="M7.511,12l6.146-9.555H8.323v-2h9.31l-6.146,9.555h5.775V12Zm17.7,0V.45H31.64V2.438H27.482V5.217h3.99V7.2h-3.99v2.807H31.64V12Zm14.8,0V.45h3.934A4.72,4.72,0,0,1,46,.866a3.126,3.126,0,0,1,1.351,1.2,3.522,3.522,0,0,1,.479,1.88,3.829,3.829,0,0,1-.308,1.564,3.162,3.162,0,0,1-.882,1.173,3.742,3.742,0,0,1-1.393.707L49.028,12H46.151L42.819,7.646H42.28V12ZM42.28,5.756h.966a3.13,3.13,0,0,0,1.2-.2,1.617,1.617,0,0,0,.752-.6,1.676,1.676,0,0,0,.263-.949,1.543,1.543,0,0,0-.577-1.292,2.6,2.6,0,0,0-1.635-.451H42.28Z" transform="translate(133 117)" fill="#e9e9e9"/>
    <circle id="Ellipse_67" data-name="Ellipse 67" cx="21.5" cy="21.5" r="21.5" transform="translate(194 102)"/>
    <g id="Subtraction_1" data-name="Subtraction 1" transform="translate(4048 -24)" fill="#ffc400">
      <path d="M -3832.50048828125 167.9996032714844 C -3837.97607421875 167.9996032714844 -3843.123779296875 165.8672637939453 -3846.995849609375 161.9953765869141 C -3850.86767578125 158.1234436035156 -3853 152.9756011962891 -3853 147.5001068115234 C -3853 142.0241851806641 -3850.86767578125 136.8760223388672 -3846.995849609375 133.0039672851563 C -3843.123779296875 129.1320190429688 -3837.97607421875 126.999626159668 -3832.50048828125 126.999626159668 C -3827.024658203125 126.999626159668 -3821.87646484375 129.1320190429688 -3818.004150390625 133.0039978027344 C -3814.13232421875 136.8759460449219 -3812 142.0240936279297 -3812 147.5001068115234 C -3812 152.9756774902344 -3814.13232421875 158.12353515625 -3818.004150390625 161.9953765869141 C -3821.87646484375 165.8672637939453 -3827.024658203125 167.9996032714844 -3832.50048828125 167.9996032714844 Z M -3832.50048828125 127.3615951538086 C -3843.604248046875 127.3615951538086 -3852.637939453125 136.3956909179688 -3852.637939453125 147.5001068115234 C -3852.637939453125 158.6039733886719 -3843.604248046875 167.6376342773438 -3832.50048828125 167.6376342773438 C -3821.39599609375 167.6376342773438 -3812.36181640625 158.6039733886719 -3812.36181640625 147.5001068115234 C -3812.36181640625 136.3956909179688 -3821.39599609375 127.3615951538086 -3832.50048828125 127.3615951538086 Z" stroke="none"/>
      <path d="M -3832.50048828125 168.9996032714844 C -3838.2431640625 168.9996032714844 -3843.64208984375 166.7632446289063 -3847.702880859375 162.7024841308594 C -3851.763671875 158.6416473388672 -3854 153.24267578125 -3854 147.5001068115234 C -3854 141.7571105957031 -3851.763671875 136.3578338623047 -3847.702880859375 132.296875 C -3843.64208984375 128.2360229492188 -3838.2431640625 125.999626159668 -3832.50048828125 125.999626159668 C -3826.75732421875 125.999626159668 -3821.358154296875 128.2360229492188 -3817.297119140625 132.296875 C -3813.236328125 136.3577423095703 -3811 141.7570343017578 -3811 147.5001068115234 C -3811 153.2427520751953 -3813.236328125 158.6417388916016 -3817.297119140625 162.7024841308594 C -3821.358154296875 166.7632446289063 -3826.75732421875 168.9996032714844 -3832.50048828125 168.9996032714844 Z M -3832.50048828125 128.3616027832031 C -3843.052978515625 128.3616027832031 -3851.637939453125 136.9470977783203 -3851.637939453125 147.5001068115234 C -3851.637939453125 158.0525817871094 -3843.052978515625 166.6376342773438 -3832.50048828125 166.6376342773438 C -3821.947509765625 166.6376342773438 -3813.36181640625 158.0525817871094 -3813.36181640625 147.5001068115234 C -3813.36181640625 136.9470977783203 -3821.947509765625 128.3616027832031 -3832.50048828125 128.3616027832031 Z" stroke="none" fill="#ffc400"/>
    </g>
  </g>
</svg>
