<svg xmlns="http://www.w3.org/2000/svg" xmlns:xlink="http://www.w3.org/1999/xlink" width="81" height="81" viewBox="0 0 81 81">
  <defs>
    <linearGradient id="linear-gradient" x1="0.386" y1="0.28" x2="0.834" y2="0.719" gradientUnits="objectBoundingBox">
      <stop offset="0" stop-color="#ddb613"/>
      <stop offset="1" stop-color="#c5ce1a"/>
    </linearGradient>
  </defs>
  <g id="analysis" transform="translate(0.181 -0.393)" opacity="0.5">
    <path id="Объединение_2" data-name="Объединение 2" d="M18.035,81a4.752,4.752,0,0,1-4.746-4.746V62.7a1.582,1.582,0,0,1,3.164,0V76.254a1.584,1.584,0,0,0,1.582,1.582H76.254a1.584,1.584,0,0,0,1.582-1.582V17.56h-9.65a4.751,4.751,0,0,1-4.746-4.746V3.164h-45.4a1.584,1.584,0,0,0-1.582,1.582V6.805A20.886,20.886,0,0,1,20.9,6.328,1.582,1.582,0,0,1,22.479,7.91V27.225A1.582,1.582,0,0,1,20.9,28.807H1.582A1.582,1.582,0,0,1,0,27.225,20.931,20.931,0,0,1,13.289,7.762V4.746A4.751,4.751,0,0,1,18.035,0H65.022A1.582,1.582,0,0,1,66.14.463l14.4,14.394A1.581,1.581,0,0,1,81,15.976V76.254A4.751,4.751,0,0,1,76.254,81ZM3.234,25.643H19.315V9.562A17.763,17.763,0,0,0,3.234,25.643ZM66.6,12.814A1.584,1.584,0,0,0,68.186,14.4H75.6l-9-9Zm-42.255,57.1a4.745,4.745,0,0,1,6.786-4.284l5.805-5.805a4.746,4.746,0,1,1,8.728-.26l6.053,6.053a4.738,4.738,0,0,1,4.1.021l9.114-9.115a4.753,4.753,0,1,1,2.138,2.337l-9.029,9.029a4.746,4.746,0,1,1-8.568-.046l-5.882-5.882a4.73,4.73,0,0,1-4.444.129l-5.773,5.773a4.746,4.746,0,1,1-9.026,2.049Zm3.164,0a1.582,1.582,0,1,0,2.718-1.1l-.024-.021-.018-.02a1.58,1.58,0,0,0-2.676,1.139Zm24.653-.007a1.582,1.582,0,1,0,1.582-1.582A1.584,1.584,0,0,0,52.165,69.909Zm-12.5-12.07a1.582,1.582,0,1,0,1.582-1.582A1.584,1.584,0,0,0,39.667,57.84Zm28.056-3.164A1.582,1.582,0,1,0,69.3,53.094,1.584,1.584,0,0,0,67.722,54.676Zm-53.969,3.4a1.581,1.581,0,1,1,1.118.464A1.592,1.592,0,0,1,13.753,58.071ZM5.667,32.892A1.582,1.582,0,0,1,7.249,31.31H24.982V13.577a1.582,1.582,0,0,1,1.582-1.582,20.9,20.9,0,1,1-20.9,20.9Zm20.9,17.733a17.724,17.724,0,0,0,13.6-29.1L27.682,34.011h0a1.577,1.577,0,0,1-1.118.463H8.9A17.757,17.757,0,0,0,26.564,50.625Zm1.582-21.552,9.783-9.783a17.653,17.653,0,0,0-9.783-4.061ZM67.481,39.878a1.581,1.581,0,1,1,1.119.464A1.593,1.593,0,0,1,67.481,39.878Zm-14.434.464a1.582,1.582,0,1,1,0-3.164H61.4a1.582,1.582,0,1,1,0,3.164Zm0-7.594a1.582,1.582,0,1,1,0-3.164H72.372a1.582,1.582,0,1,1,0,3.164Zm0-7.594a1.582,1.582,0,0,1,0-3.164H72.372a1.582,1.582,0,1,1,0,3.164Z" transform="translate(-0.181 0.393)" fill="url(#linear-gradient)"/>
  </g>
</svg>
