<svg width="30" height="31" viewBox="0 0 30 31" fill="none" xmlns="http://www.w3.org/2000/svg">
<g clip-path="url(#clip0)">
<path d="M13.792 30.9008C9.25349 30.9008 6.54199 23.2733 6.54199 15.9008C6.54199 11.007 8.31462 0.900757 13.792 0.900757C16.3537 0.900757 18.6519 3.52951 19.94 7.93201C20.0367 8.26201 19.8566 8.61076 19.5376 8.71201C19.2174 8.81201 18.8815 8.62451 18.7836 8.29576C17.6744 4.50451 15.7616 2.15076 13.792 2.15076C9.67037 2.15076 7.75033 10.3558 7.75033 15.9008C7.75033 23.3533 10.5174 29.6508 13.792 29.6508C15.6903 29.6508 17.5632 27.427 18.6785 23.8458C18.7594 23.587 18.9914 23.412 19.2537 23.412C19.5872 23.412 19.8639 23.692 19.8639 24.037C19.8639 24.1383 19.8409 24.2333 19.801 24.3183C18.4948 28.442 16.2534 30.9008 13.792 30.9008Z" fill="#FFC600"/>
<path d="M19.2291 9.65075C19.0696 9.65075 18.9162 9.58575 18.8014 9.46825L16.3847 6.96825C16.1491 6.7245 16.1491 6.32825 16.3847 6.0845C16.6204 5.84075 17.0034 5.84075 17.239 6.0845L19.1627 8.0745L20.5583 6.15075C20.7589 5.8745 21.1371 5.81825 21.4041 6.02575C21.6712 6.23325 21.7256 6.6245 21.525 6.90075L19.7125 9.40075C19.6074 9.54575 19.4466 9.63575 19.2726 9.6495C19.2569 9.65075 19.2436 9.65075 19.2291 9.65075Z" fill="#FFC600"/>
<path d="M15 24.9632C7.87325 24.9632 0.5 22.1582 0.5 17.4632C0.5 14.9082 2.91062 12.5732 6.94767 11.2182C7.26425 11.1132 7.60621 11.2907 7.70892 11.6195C7.81163 11.9482 7.63763 12.2995 7.32104 12.407C3.806 13.587 1.70833 15.477 1.70833 17.4632C1.70833 21.202 8.58133 23.7132 15 23.7132C20.3602 23.7132 28.2917 21.727 28.2917 17.4632C28.2917 15.3945 25.939 13.387 22.1509 12.2257C21.8307 12.127 21.6483 11.7795 21.7437 11.4482C21.8392 11.1182 22.1739 10.9282 22.4953 11.027C26.8815 12.372 29.5 14.7782 29.5 17.4632C29.5 23.1295 19.7306 24.9632 15 24.9632Z" fill="#FFC600"/>
<path d="M24.0631 14.9632C23.9084 14.9632 23.7538 14.902 23.6353 14.7807L21.2187 12.2807C21.0942 12.152 21.0314 11.9757 21.0435 11.7945C21.0555 11.6132 21.1438 11.4482 21.2839 11.3395L23.7006 9.46447C23.9676 9.25697 24.3458 9.31197 24.5464 9.58947C24.747 9.86572 24.6926 10.257 24.4256 10.4645L22.566 11.907L24.4896 13.897C24.7253 14.1407 24.7253 14.537 24.4896 14.7807C24.3724 14.902 24.2178 14.9632 24.0631 14.9632Z" fill="#FFC600"/>
<path d="M15.0003 20.9008C12.3347 20.9008 10.167 18.6583 10.167 15.9008C10.167 13.1433 12.3347 10.9008 15.0003 10.9008C17.6659 10.9008 19.8337 13.1433 19.8337 15.9008C19.8337 18.6583 17.6659 20.9008 15.0003 20.9008ZM15.0003 12.1508C13.0017 12.1508 11.3753 13.8333 11.3753 15.9008C11.3753 17.9683 13.0017 19.6508 15.0003 19.6508C16.9989 19.6508 18.6253 17.9683 18.6253 15.9008C18.6253 13.8333 16.9989 12.1508 15.0003 12.1508Z" fill="#FFC600"/>
<path d="M15.0003 17.1508C14.3345 17.1508 13.792 16.5895 13.792 15.9008C13.792 15.212 14.3345 14.6508 15.0003 14.6508C15.6661 14.6508 16.2087 15.212 16.2087 15.9008C16.2087 16.5895 15.6661 17.1508 15.0003 17.1508Z" fill="#FFC600"/>
</g>
<defs>
<clipPath id="clip0">
<rect width="29" height="30" fill="white" transform="translate(0.5 0.900757)"/>
</clipPath>
</defs>
</svg>
