<svg width="39" height="39" viewBox="0 0 39 39" fill="none" xmlns="http://www.w3.org/2000/svg">
<g opacity="0.7" clip-path="url(#clip0)">
<path d="M12.9998 9.75002C12.8048 9.75002 12.6098 9.68501 12.4148 9.62002L10.3998 8.64501L10.9848 7.47501L12.9998 8.45002L20.1498 4.87501L12.9998 1.30001L5.8498 4.87501L8.5148 6.17501L7.9298 7.34502L5.2648 6.04501C4.8098 5.85001 4.5498 5.39502 4.5498 4.87501C4.5498 4.35501 4.8098 3.96501 5.2648 3.70501L12.4148 0.130015C12.8048 -0.0649854 13.1948 -0.0649854 13.5848 0.130015L20.7348 3.70501C21.1898 3.90001 21.4498 4.35501 21.4498 4.87501C21.4498 5.39502 21.1898 5.78501 20.7348 6.04501L13.5848 9.62002C13.3898 9.68501 13.1948 9.75002 12.9998 9.75002Z" fill="white" />
<path d="M12.9998 18.85C12.8048 18.85 12.6098 18.785 12.4148 18.72L5.2648 15.145C4.8098 14.95 4.5498 14.495 4.5498 13.975V4.875H5.8498V13.975L12.9998 17.55L20.1498 13.975V4.875H21.4498V13.975C21.4498 14.495 21.1898 14.885 20.7348 15.145L13.5848 18.72C13.3898 18.785 13.1948 18.85 12.9998 18.85Z" fill="white" />
<path d="M13.6501 9.09998H12.3501V18.2H13.6501V9.09998Z" fill="white" />
<path d="M30.5501 18.85C30.3551 18.85 30.1601 18.785 29.9651 18.72L22.8151 15.145C22.3601 14.95 22.1001 14.495 22.1001 13.975C22.1001 13.455 22.3601 13.065 22.8151 12.805L29.9651 9.22999C30.3551 9.03499 30.7451 9.03499 31.1351 9.22999L33.9951 10.66L33.4101 11.83L30.5501 10.4L23.4001 13.975L30.5501 17.55L37.7001 13.975L36.3351 13.26L36.9201 12.09L38.2851 12.805C38.7401 13 39.0001 13.455 39.0001 13.975C39.0001 14.495 38.7401 14.885 38.2851 15.145L31.1351 18.72C30.9401 18.785 30.7451 18.85 30.5501 18.85Z" fill="white" />
<path d="M23.4001 13.975H22.1001V21.71H23.4001V13.975Z" fill="white" />
<path d="M30.5502 27.95C30.3552 27.95 30.1602 27.885 29.9652 27.82L23.5952 24.635L24.1802 23.465L30.5502 26.65L37.7002 23.075V13.975H39.0002V23.075C39.0002 23.595 38.7402 23.985 38.2852 24.245L31.1352 27.82C30.9402 27.885 30.7452 27.95 30.5502 27.95Z" fill="white" />
<path d="M31.1999 18.2H29.8999V27.3H31.1999V18.2Z" fill="white" />
<path d="M12.9998 29.9C12.8048 29.9 12.6098 29.835 12.4148 29.77L5.2648 26.195C4.8098 26 4.5498 25.545 4.5498 25.025C4.5498 24.505 4.8098 24.115 5.2648 23.855L11.3748 20.8L11.9598 21.97L5.8498 25.025L12.9998 28.6L20.1498 25.025L14.0398 21.97L14.6248 20.8L20.7998 23.855C21.2548 24.05 21.5148 24.505 21.5148 25.025C21.5148 25.545 21.2548 25.935 20.7998 26.195L13.6498 29.77C13.3898 29.835 13.1948 29.9 12.9998 29.9Z" fill="white" />
<path d="M12.9998 39C12.8048 39 12.6098 38.935 12.4148 38.87L5.2648 35.295C4.8098 35.1 4.5498 34.645 4.5498 34.125V25.025H5.8498V34.125L12.9998 37.7L15.7298 36.335L16.3148 37.505L13.5848 38.87C13.3898 38.935 13.1948 39 12.9998 39Z" fill="white" />
<path d="M18.0699 36.595L17.4849 35.425L20.1499 34.125V25.025H21.4499V34.125C21.4499 34.645 21.1899 35.035 20.7349 35.295L18.0699 36.595Z" fill="white" />
<path d="M13.6501 29.25H12.3501V38.35H13.6501V29.25Z" fill="white" />
<path d="M12.9998 26.65C11.8948 26.65 11.0498 25.805 11.0498 24.7V17.615H12.3498V24.7C12.3498 25.09 12.6098 25.35 12.9998 25.35C13.3898 25.35 13.6498 25.09 13.6498 24.7V17.615H14.9498V24.7C14.9498 25.805 14.1048 26.65 12.9998 26.65Z" fill="white" />
<path d="M21.125 26.52L20.41 25.415L26.975 21.32C27.17 21.19 27.3 20.995 27.3 20.8C27.3 20.41 27.04 20.15 26.65 20.15C26.52 20.15 26.39 20.215 26.325 20.28L19.63 24.44L18.915 23.335L25.61 19.175C25.935 18.98 26.26 18.85 26.65 18.85C27.755 18.85 28.6 19.695 28.6 20.8C28.6 21.45 28.275 22.1 27.69 22.425L21.125 26.52Z" fill="white" />
<path d="M9.0998 18.85H7.7998V20.15H9.0998V18.85Z" fill="white" />
<path d="M1.3 15.6H0V16.9H1.3V15.6Z" fill="white" />
<path d="M2.5998 12.35H1.2998V13.65H2.5998V12.35Z" fill="white" />
<path d="M2.5998 18.85H1.2998V20.15H2.5998V18.85Z" fill="white" />
<path d="M5.8498 20.15H4.5498V21.45H5.8498V20.15Z" fill="white" />
<path d="M25.3498 27.95H24.0498V29.25H25.3498V27.95Z" fill="white" />
<path d="M37.05 27.95H35.75V29.25H37.05V27.95Z" fill="white" />
<path d="M31.1999 33.8H29.8999V35.1H31.1999V33.8Z" fill="white" />
<path d="M27.3 31.85H26V33.15H27.3V31.85Z" fill="white" />
<path d="M35.0998 31.85H33.7998V33.15H35.0998V31.85Z" fill="white" />
<path d="M27.9499 0H26.6499V1.3H27.9499V0Z" fill="white" />
<path d="M30.55 1.30005H29.25V2.60005H30.55V1.30005Z" fill="white" />
<path d="M24.05 3.90002H22.75V5.20002H24.05V3.90002Z" fill="white" />
<path d="M31.8498 3.90002H30.5498V5.20002H31.8498V3.90002Z" fill="white" />
<path d="M27.9499 7.80005H26.6499V9.10005H27.9499V7.80005Z" fill="white" />
<path d="M25.3498 6.5H24.0498V7.8H25.3498V6.5Z" fill="white" />
<path d="M30.55 6.5H29.25V7.8H30.55V6.5Z" fill="white" />
<path d="M25.3498 1.30005H24.0498V2.60005H25.3498V1.30005Z" fill="white" />
</g>
<defs>
<clipPath id="clip0">
<rect width="39" height="39" fill="white"/>
</clipPath>
</defs>
</svg>
