<svg width="38" height="39" viewBox="0 0 38 39" fill="none" xmlns="http://www.w3.org/2000/svg">
<g opacity="0.7" clip-path="url(#clip0)">
<path d="M36.6778 26.5522L31.6552 17.2487C30.9944 16.3315 29.937 15.8728 28.6152 15.8728V14.5625C30.3996 14.5625 31.8535 15.2832 32.7787 16.528L32.8448 16.5935L37.8674 25.9625L36.6778 26.5522Z" fill="white" />
<path d="M36.8758 35.659L33.175 30.4831C32.9767 30.2211 32.7784 30.0245 32.5141 29.8935C30.7298 28.8452 24.5837 25.3728 22.2706 24.0625C21.5437 23.6693 21.0811 22.8831 21.0811 22.0969C21.0811 20.8521 22.1384 19.8038 23.3941 19.8038C23.7245 19.8038 24.055 19.8693 24.3854 20.0004L31.0602 23.1452L30.4654 24.3245L23.7906 21.1797C23.1298 20.8521 22.4028 21.3762 22.4028 22.0314C22.4028 22.359 22.6011 22.6866 22.9315 22.8831C25.1784 24.1935 31.3245 27.6659 33.175 28.7142C33.5715 28.9762 33.968 29.3038 34.2324 29.6969L37.9332 34.8728L36.8758 35.659Z" fill="white" />
<path d="M18.5038 19.8039C17.0499 19.8039 15.8604 18.6246 15.8604 17.1832C15.8604 15.7418 17.0499 14.5625 18.5038 14.5625C19.9577 14.5625 21.1473 15.7418 21.1473 17.1832C21.1473 18.6246 19.9577 19.8039 18.5038 19.8039ZM18.5038 15.8728C17.7769 15.8728 17.1821 16.4625 17.1821 17.1832C17.1821 17.9039 17.7769 18.4935 18.5038 18.4935C19.2308 18.4935 19.8256 17.9039 19.8256 17.1832C19.8256 16.4625 19.2308 15.8728 18.5038 15.8728Z" fill="white" />
<path d="M8.59074 17.8383C7.13683 17.8383 5.94727 16.659 5.94727 15.2176C5.94727 13.7762 7.13683 12.5969 8.59074 12.5969C10.0447 12.5969 11.2342 13.7762 11.2342 15.2176C11.2342 16.659 10.0447 17.8383 8.59074 17.8383ZM8.59074 13.9073C7.86379 13.9073 7.269 14.4969 7.269 15.2176C7.269 15.9383 7.86379 16.528 8.59074 16.528C9.3177 16.528 9.91248 15.9383 9.91248 15.2176C9.91248 14.4969 9.3177 13.9073 8.59074 13.9073Z" fill="white" />
<path d="M9.91252 24.3901C8.45861 24.3901 7.26904 23.2108 7.26904 21.7694C7.26904 20.328 8.45861 19.1487 9.91252 19.1487C11.3664 19.1487 12.556 20.328 12.556 21.7694C12.556 23.2108 11.3664 24.3901 9.91252 24.3901ZM9.91252 20.459C9.18556 20.459 8.59078 21.0487 8.59078 21.7694C8.59078 22.4901 9.18556 23.0797 9.91252 23.0797C10.6395 23.0797 11.2343 22.4901 11.2343 21.7694C11.2343 21.0487 10.6395 20.459 9.91252 20.459Z" fill="white" />
<path d="M16.0945 16.7194L11.377 20.7262L12.2369 21.7213L16.9544 17.7145L16.0945 16.7194Z" fill="white" />
<path d="M10.8095 14.6045L10.3916 15.8477L16.3478 17.8157L16.7657 16.5726L10.8095 14.6045Z" fill="white" />
<path d="M11.2343 0.803833H9.9126V2.11418H11.2343V0.803833Z" fill="white" />
<path d="M13.8779 2.11414H12.5562V3.42448H13.8779V2.11414Z" fill="white" />
<path d="M7.269 4.73486H5.94727V6.04521H7.269V4.73486Z" fill="white" />
<path d="M15.1997 4.73486H13.8779V6.04521H15.1997V4.73486Z" fill="white" />
<path d="M8.59078 2.11414H7.26904V3.42448H8.59078V2.11414Z" fill="white" />
<path d="M31.7212 2.11414H30.3994V3.42448H31.7212V2.11414Z" fill="white" />
<path d="M34.3647 3.42456H33.043V4.73491H34.3647V3.42456Z" fill="white" />
<path d="M35.6865 6.04517H34.3647V7.35551H35.6865V6.04517Z" fill="white" />
<path d="M31.7212 9.9762H30.3994V11.2865H31.7212V9.9762Z" fill="white" />
<path d="M34.3647 8.66589H33.043V9.97624H34.3647V8.66589Z" fill="white" />
<path d="M29.0776 3.42456H27.7559V4.73491H29.0776V3.42456Z" fill="white" />
<path d="M22.4692 29.6315H21.1475V30.9418H22.4692V29.6315Z" fill="white" />
<path d="M25.1128 30.9418H23.791V32.2521H25.1128V30.9418Z" fill="white" />
<path d="M18.5039 33.5625H17.1821V34.8728H18.5039V33.5625Z" fill="white" />
<path d="M26.4345 33.5625H25.1128V34.8728H26.4345V33.5625Z" fill="white" />
<path d="M22.4692 37.4935H21.1475V38.8039H22.4692V37.4935Z" fill="white" />
<path d="M19.8256 36.1831H18.5039V37.4935H19.8256V36.1831Z" fill="white" />
<path d="M25.1128 36.1831H23.791V37.4935H25.1128V36.1831Z" fill="white" />
<path d="M19.8256 30.9418H18.5039V32.2521H19.8256V30.9418Z" fill="white" />
<path d="M23.6795 7.0019L22.3672 7.15796L24.0358 20.949L25.3482 20.7929L23.6795 7.0019Z" fill="white" />
<path d="M3.96473 28.9762C2.97342 28.9762 2.11429 28.2555 1.98212 27.2728C-0.000488281 10.6969 -0.000488281 10.6969 -0.000488281 10.6314C-0.000488281 9.64861 0.726468 8.79689 1.78386 8.66586C26.3682 6.04517 26.3682 6.04517 26.4343 6.04517C27.4256 6.04517 28.2847 6.76586 28.4169 7.74861L30.2673 23.0797L28.9456 23.2107L27.0952 7.94517C27.0291 7.61758 26.7647 7.35551 26.4343 7.35551C26.1039 7.35551 2.11429 9.9762 1.91603 9.9762C1.5856 10.0417 1.32125 10.3038 1.32125 10.6314C1.32125 10.8279 2.64299 21.5072 3.30386 27.0762C3.36995 27.4038 3.63429 27.6659 3.96473 27.6659C4.22908 27.6659 26.5004 25.2417 26.6986 25.2417L26.8308 26.5521C4.03082 28.9762 4.03082 28.9762 3.96473 28.9762Z" fill="white" />
</g>
<defs>
<clipPath id="clip0">
<rect width="38" height="38" fill="white" transform="translate(-0.000488281 0.803833)"/>
</clipPath>
</defs>
</svg>
