<svg width="20" height="22" viewBox="0 0 20 22" fill="none" xmlns="http://www.w3.org/2000/svg">
<path d="M10.2958 17.0968C9.75683 17.0968 9.21786 16.8812 8.82262 16.4859L4.51088 12.1742C4.29529 11.9586 4.1875 11.6712 4.1875 11.3837C4.1875 10.7729 4.69054 10.2698 5.30137 10.2698H7.4213V0.927734H8.13993V10.9885H5.30137C5.08578 10.9885 4.90612 11.1681 4.90612 11.3837C4.90612 11.4915 4.94205 11.5993 5.01392 11.6712L9.32566 15.9829C9.57717 16.2344 9.93649 16.3781 10.2958 16.3781C10.6551 16.3781 11.0144 16.2344 11.2659 15.9829L15.5777 11.6712C15.6495 11.5993 15.6855 11.4915 15.6855 11.3837C15.6855 11.1681 15.5058 10.9885 15.2902 10.9885H12.4517V3.0836H13.1703V10.2698H15.2902C15.9011 10.2698 16.4041 10.7729 16.4041 11.3837C16.4041 11.6712 16.2963 11.9586 16.0807 12.1742L11.769 16.4859C11.3737 16.8812 10.8348 17.0968 10.2958 17.0968Z" fill="#121C21"/>
<path d="M19.9973 21.7679H0.594482V17.8154H3.10966V19.2527H17.4821V17.8154H19.9973V21.7679ZM1.31311 21.0492H19.2787V18.5341H18.2008V19.9713H2.39104V18.5341H1.31311V21.0492Z" fill="#121C21"/>
<path d="M14.9669 0.927734H14.2483V5.59879H14.9669V0.927734Z" fill="#121C21"/>
<path d="M16.7635 3.08362H16.0449V5.95811H16.7635V3.08362Z" fill="#121C21"/>
<path d="M16.7635 6.67676H16.0449V7.75469H16.7635V6.67676Z" fill="#121C21"/>
<path d="M16.0448 13.863H15.3262V15.3003H16.0448V13.863Z" fill="#121C21"/>
<path d="M16.0448 16.0189H15.3262V18.1748H16.0448V16.0189Z" fill="#121C21"/>
<path d="M6.34338 3.08362H5.62476V6.67673H6.34338V3.08362Z" fill="#121C21"/>
<path d="M4.54699 6.31738H3.82837V9.19188H4.54699V6.31738Z" fill="#121C21"/>
<path d="M4.54699 4.52087H3.82837V5.59881H4.54699V4.52087Z" fill="#121C21"/>
<path d="M5.2655 13.863H4.54688V16.0189H5.2655V13.863Z" fill="#121C21"/>
<path d="M5.2655 16.7375H4.54688V17.8155H5.2655V16.7375Z" fill="#121C21"/>
</svg>
