<svg width="27" height="30" viewBox="0 0 27 30" fill="none" xmlns="http://www.w3.org/2000/svg">
<path d="M7.79879 4.82559L7.44385 5.79895L10.0301 6.73707L10.3851 5.7637L7.79879 4.82559Z" fill="#B2B3B5"/>
<path d="M11.5788 6.16944L11.2236 7.1427L12.2483 7.51463L12.6034 6.54136L11.5788 6.16944Z" fill="#B2B3B5"/>
<path d="M13.6947 6.90787L13.3325 7.87854L19.0747 10.01L19.4369 9.03929L13.6947 6.90787Z" fill="#B2B3B5"/>
<path d="M7.53518 5.92287L6.8335 6.6864L19.4651 18.2336L20.1668 17.4701L7.53518 5.92287Z" fill="#B2B3B5"/>
<path d="M9.13929 13.1495L7.56299 13.6735L7.89135 14.656L9.46765 14.1321L9.13929 13.1495Z" fill="#B2B3B5"/>
<path d="M11.1947 12.5339L10.3042 12.8169L10.6195 13.8037L11.51 13.5207L11.1947 12.5339Z" fill="#B2B3B5"/>
<path d="M19.0788 10.0402L13.5361 11.7959L13.8505 12.783L19.3931 11.0274L19.0788 10.0402Z" fill="#B2B3B5"/>
<path d="M12.7156 17.2516L6.8208 22.6403L7.52249 23.4038L13.4173 18.0151L12.7156 17.2516Z" fill="#B2B3B5"/>
<path d="M19.2663 11.3116L14.4434 15.7206L15.145 16.4841L19.968 12.0752L19.2663 11.3116Z" fill="#B2B3B5"/>
<path d="M7.83043 15.1502L7.47559 16.1235L19.0405 20.3173L19.3954 19.3439L7.83043 15.1502Z" fill="#B2B3B5"/>
<path d="M10.6237 23.4246L7.59863 24.5223L7.95368 25.4956L10.9788 24.3979L10.6237 23.4246Z" fill="#B2B3B5"/>
<path d="M12.6781 22.7215L11.7998 23.0402L12.1549 24.0134L13.0331 23.6947L12.6781 22.7215Z" fill="#B2B3B5"/>
<path d="M19.168 20.3206L13.8984 22.2328L14.2535 23.206L19.523 21.2939L19.168 20.3206Z" fill="#B2B3B5"/>
<path d="M4.15385 8.45368C1.86923 8.45368 0 6.5894 0 4.31083C0 2.03225 1.86923 0.167969 4.15385 0.167969C6.43846 0.167969 8.30769 2.03225 8.30769 4.31083C8.30769 6.5894 6.43846 8.45368 4.15385 8.45368ZM4.15385 1.20368C2.44038 1.20368 1.03846 2.6019 1.03846 4.31083C1.03846 6.01975 2.44038 7.41797 4.15385 7.41797C5.86731 7.41797 7.26923 6.01975 7.26923 4.31083C7.26923 2.6019 5.86731 1.20368 4.15385 1.20368Z" fill="#B2B3B5"/>
<path d="M22.8462 14.1501C20.5616 14.1501 18.6924 12.2858 18.6924 10.0072C18.6924 7.72867 20.5616 5.86438 22.8462 5.86438C25.1308 5.86438 27.0001 7.72867 27.0001 10.0072C27.0001 12.2858 25.1308 14.1501 22.8462 14.1501ZM22.8462 6.90009C21.1328 6.90009 19.7308 8.29831 19.7308 10.0072C19.7308 11.7162 21.1328 13.1144 22.8462 13.1144C24.5597 13.1144 25.9616 11.7162 25.9616 10.0072C25.9616 8.29831 24.5597 6.90009 22.8462 6.90009Z" fill="#B2B3B5"/>
<path d="M4.15385 18.8109C1.86923 18.8109 0 16.9466 0 14.668C0 12.3894 1.86923 10.5251 4.15385 10.5251C6.43846 10.5251 8.30769 12.3894 8.30769 14.668C8.30769 16.9466 6.43846 18.8109 4.15385 18.8109ZM4.15385 11.5609C2.44038 11.5609 1.03846 12.9591 1.03846 14.668C1.03846 16.3769 2.44038 17.7751 4.15385 17.7751C5.86731 17.7751 7.26923 16.3769 7.26923 14.668C7.26923 12.9591 5.86731 11.5609 4.15385 11.5609Z" fill="#B2B3B5"/>
<path d="M4.15385 29.1679C1.86923 29.1679 0 27.3036 0 25.0251C0 22.7465 1.86923 20.8822 4.15385 20.8822C6.43846 20.8822 8.30769 22.7465 8.30769 25.0251C8.30769 27.3036 6.43846 29.1679 4.15385 29.1679ZM4.15385 21.9179C2.44038 21.9179 1.03846 23.3161 1.03846 25.0251C1.03846 26.734 2.44038 28.1322 4.15385 28.1322C5.86731 28.1322 7.26923 26.734 7.26923 25.0251C7.26923 23.3161 5.86731 21.9179 4.15385 21.9179Z" fill="#B2B3B5"/>
<path d="M22.8462 23.9895C20.5616 23.9895 18.6924 22.1252 18.6924 19.8466C18.6924 17.568 20.5616 15.7037 22.8462 15.7037C25.1308 15.7037 27.0001 17.568 27.0001 19.8466C27.0001 22.1252 25.1308 23.9895 22.8462 23.9895ZM22.8462 16.7394C21.1328 16.7394 19.7308 18.1377 19.7308 19.8466C19.7308 21.5555 21.1328 22.9537 22.8462 22.9537C24.5597 22.9537 25.9616 21.5555 25.9616 19.8466C25.9616 18.1377 24.5597 16.7394 22.8462 16.7394Z" fill="#B2B3B5"/>
</svg>
