<?xml version="1.0" encoding="utf-8"?>
<!-- Generator: Adobe Illustrator 21.0.0, SVG Export Plug-In . SVG Version: 6.00 Build 0)  -->
<svg version="1.1" id="Слой_1" xmlns="http://www.w3.org/2000/svg" xmlns:xlink="http://www.w3.org/1999/xlink" x="0px" y="0px"
	 viewBox="0 0 512 511.7" style="enable-background:new 0 0 512 511.7;" xml:space="preserve" fill="#ddb413">
<style type="text/css">
	.st0{clip-path:url(#SVGID_2_);}
</style>
<g>
	<defs>
		<rect id="SVGID_1_" width="512" height="511.7"/>
	</defs>
	<clipPath id="SVGID_2_">
		<use xlink:href="#SVGID_1_"  style="overflow:visible;"/>
	</clipPath>
	<path class="st0" d="M264.1,343.7v24c3.9,0,7.7-0.1,11.4,0c9.6,0.2,16.3,6.9,16.4,16.5c0.1,30.8,0.2,61.7,0,92.5
		c-0.2,19.5-16.7,35.2-36.3,35c-19.3-0.2-35.2-16-35.6-35.3c-0.1-4.2-0.1-8.3,0-12.5c0.1-5.2,3.2-8.5,7.8-8.5c4.8-0.1,8,3.3,8.2,8.7
		c0.1,4-0.1,8,0.1,12c0.5,11.1,9.1,19.6,20,19.6c10.8,0,19.8-8.5,19.9-19.7c0.2-30.5,0.1-61,0.1-91.9h-40c0,3.3,0,6.8,0,10.2
		c0,9.3,0.1,68.7,0,78c0,5.3-3.4,8.9-8.1,8.9c-4.5,0-7.9-3.5-7.9-8.5c-0.1-13.2-0.2-76.3,0-89.5c0.1-8.4,7-15.1,15.4-15.4
		c4-0.2,8,0,12.3,0v-23.6c-9.3-1.4-18.8-2.3-27.9-4.4c-55.7-13.1-96-45.7-120.5-97.5c-4.3-9.1-4.1-9.2-15.3-8.1v5.2
		c0,16.2,0,32.3,0,48.5c0,8.5-2.5,10.9-11.1,10.9c-7.3,0-14.7,0.1-22,0c-2.6,0-4,0.4-5.3,3.1c-4.8,10.2-15.6,15.6-25.9,13.5
		C8.3,312.9,0.4,303.7,0,292.5c-0.3-10.9,6.7-20.7,17.1-23.7c10.7-3.2,21.4,1.2,27.7,10.8c0.9,1.5,3.1,2.8,4.8,2.9
		c5.9,0.4,11.9,0.1,18.4,0.1v-21.8c0-11.3,0-22.7,0-34c0-6.2,3-9.1,9.2-9.2c4.1-0.1,8.3,0,11.8,0c-2.1-16.9-4.2-33.5-6.3-51
		c-4.5,0-10,0-15.6,0c-7.3,0-10-2.7-10.1-9.9c0-8.1,0-16.3,0-24.8H35.2c0,5.5,0,11.1,0,16.7c0,6.2,0.2,12.3-0.1,18.5
		c-0.2,3.7,0.8,5.8,4.4,7.7c10.5,5.4,15,18,10.8,29.1c-4.1,10.9-15.6,17.5-26.8,15.2c-12-2.4-20.3-12.8-19.5-24.8
		c0.5-8.4,4.4-15,11.7-19.2c2.8-1.6,3.5-3.3,3.5-6.3c-0.1-14.2-0.1-28.3-0.1-42.5c0-8.2,2.6-10.8,10.7-10.8c8.8,0,17.6,0,26.7,0
		V43.9c-5.3-0.4-9.8-1.3-13.2,5.1c-5,9.4-17,12.7-27.1,9.4C6.3,55.1-0.4,45.3,0,34.6c0.4-10.4,7.8-19.4,18-22
		c10.4-2.7,21.5,1.7,26.5,11.1c1.8,3.4,3.8,4.4,7.3,4.1c3.8-0.3,7.7-0.1,11.5,0c6.8,0.1,9.6,2.9,9.6,9.8c0,30.3,0,60.7,0,91v21.8
		h12.2c7.4-49.7,31-89.8,72.1-119.1C187.5,9.7,221.5-0.4,258.6,0c27.8,0.3,54,7.1,78.5,20.3c24.5,13.2,44.7,31.2,60.5,54.1
		c15.8,22.9,25.3,48.2,29,75.9H438v-5.6c0-35.5,0-71,0-106.5c0-7.9,2.6-10.5,10.4-10.6c1.7,0,3.3-0.1,5,0c6.9,0.5,12-0.2,16.8-7.3
		C478,8.8,495,8.9,504.9,18.8c9.9,10,9.4,25.9-1.2,35.1c-10.3,9-27,7.8-34.3-3.8c-4.1-6.5-8.5-7-15-6v71.7c9,0,18,0,26.9,0
		c7.8,0,10.6,2.7,10.6,10.4c0,14.3,0.1,28.7,0,43c0,2.7,0.4,4.4,3.1,5.9c9.9,5.6,14.2,16.7,11.1,27.4c-3.1,10.5-12.7,17.5-23.6,17.2
		c-10.8-0.2-20.1-7.9-22.6-18.6c-2.5-10.9,2.4-21.3,12.6-26.9c1.4-0.8,3.3-2.3,3.3-3.6c0.2-12.8,0.1-25.6,0.1-38.7h-21.8
		c0,8.2,0,16.3,0,24.4c0,7.6-2.6,10.3-10.1,10.3c-5.1,0-10.3,0-15.5,0c-0.6,8.8-0.8,17.3-1.8,25.7c-1,8.4-2.9,16.6-4.5,25.3
		c4,0,7.8-0.1,11.6,0c6.2,0.1,9.2,3,9.2,9.2c0.1,18.3,0,36.6,0,55.7c7.2,0,14.3,0.1,21.4-0.2c1.1,0,2.3-2,3.1-3.3
		c6.5-10.2,18.7-14.2,29.7-9.6c10.6,4.4,16.6,15.9,14.2,26.9c-2.6,11.7-12.8,19.8-24.6,19.1c-9-0.5-16-4.9-19.9-13
		c-1.6-3.4-3.5-4.1-6.8-4c-7.3,0.2-14.7,0.1-22,0.1c-8.6,0-11.1-2.4-11.1-10.9c0-16,0-32,0-48v-6.1c-3.1,0-5.9-0.4-8.6,0.2
		c-1.4,0.3-3,2.2-3.6,3.8c-8.8,20.6-20.8,39.1-36.7,54.9c-29.4,29.3-64.7,46.1-106.1,50.3C269.5,343.1,267,343.4,264.1,343.7
		 M256.3,15.7C170.2,15.5,100.1,85.4,100,171.5c-0.1,86.1,69.4,155.8,155.9,156.2c85.4,0.4,155.7-69.5,156-155.1
		C412.3,86.1,342.6,15.9,256.3,15.7 M23.9,27.7c-4.3,0.1-7.9,3.7-7.9,8c0,4.3,3.6,7.9,7.9,8c4.5,0.1,8.2-3.7,8.1-8.2
		C31.8,31.2,28.1,27.7,23.9,27.7 M488.2,27.7c-4.3-0.1-8,3.4-8.2,7.7c-0.2,4.3,3.2,8.1,7.5,8.3c4.5,0.3,8.4-3.4,8.4-7.9
		C496,31.5,492.5,27.9,488.2,27.7 M28.4,187.7c-4.3-0.2-8.1,3.2-8.4,7.5c-0.3,4.3,3,8.1,7.3,8.5c4.5,0.4,8.5-3.2,8.6-7.7
		C36.1,191.7,32.7,188,28.4,187.7 M491,195.6c0-4.3-3.7-7.9-7.9-7.9c-4.5,0-8.2,3.8-8,8.3c0.2,4.3,3.9,7.8,8.2,7.6
		C487.5,203.6,491,199.9,491,195.6 M32,291.9c0.1-4.3-3.4-8-7.7-8.1c-4.5-0.2-8.3,3.6-8.3,8.1c0,4.3,3.6,7.9,7.9,7.9
		C28.2,299.7,31.9,296.2,32,291.9 M488.2,299.7c4.3-0.1,7.8-3.7,7.8-8c0-4.3-3.6-7.9-7.9-7.9c-4.5,0-8.2,3.8-8,8.3
		C480.2,296.3,483.9,299.8,488.2,299.7"/>
	<path class="st0" d="M324.3,160.9c5.9,0,11,0,16.1,0c8.3,0.1,10.8,2.6,10.8,10.7c0,3.8,0,7.7,0.1,11.5c0,0.3,0.2,0.6,0.4,1.4h19.1
		v-18.9c0-9,0-18,0-27c0-6.7,2.8-9.7,9.3-9.6c11.3,0.1,8.5-2.3,11.8,9.3c0.5,1.9,0.8,3.9,1.3,6.3c-2,0.2-3.7,0.4-6.1,0.7
		c-0.1,1.4-0.3,3-0.3,4.6c0,13,0,26,0,39c0,10-2.1,12.1-11.9,12.1c-7.6,0-15.3,0-23.3,0v16c6.3,0,12.5-0.1,18.8,0
		c5.4,0.1,8.6,3,8.8,7.6c0.2,4.4-2.6,8.1-6.9,8.2c-9.8,0.3-19.7,0.3-29.5,0c-4.9-0.1-7.5-3.5-7.5-9.3c-0.1-13.5,0-27,0-40.5v-6
		c-7.1,0-13.7-0.1-20.3,0.1c-0.9,0-2.1,1-2.7,1.8c-15.1,20.1-23.5,42.4-22.4,67.8c0,0.1,0.2,0.3,0.5,0.8c0.7,0.1,1.6,0.1,2.6,0.3
		c4.5,0.9,7.2,4.2,7.1,8.3c-0.2,4.3-3.5,7.5-8.3,7.6c-11.8,0.1-23.7,0.1-35.5,0.1c-11.2,0-22.3,0-33.5,0c-6.7,0-10.2-2.4-10.6-7.3
		c-0.5-4.9,2.8-8,10-9.1c0-18.2-2.4-35.7-12.6-51.5c-1.2-1.8-2.3-3.6-3.5-5.5c-9.2-14.6-12.8-16-31.1-12.7c0,3.7,0,7.5,0,11.2
		c0,11.3,0,22.7,0,34c0,7.2-2.8,10.1-9.9,10.1c-8.3,0-16.7,0-25,0c-5.8-0.1-9-2.9-9.1-7.7c-0.1-5,3.3-8.1,9.2-8.3c6-0.1,12,0,18.4,0
		v-16c-7,0-13.7,0-20.5,0c-7.9,0-10.5-2.6-10.5-10.5c0-13.2,0-26.3,0-39.5v-5.7c-3-0.3-5.6-0.5-8.5-0.8c0.4-1.8,0.7-3.2,1-4.6
		c2.6-11.9,4.5-13.2,16.5-10.8c4.6,0.9,6.9,3.7,6.9,8.9c0.1,13.7,0,27.3,0,41v5.6h15.5c0-4.8,0-9.4,0-14c0.1-6.9,2.8-9.6,9.8-9.7
		c5.5-0.1,10.9,0,17.1,0c-11.4-23.1-12.9-46.2-3.8-69.7c6.1-15.8,16.3-28.6,30.4-38c29-19.3,65-17.9,92.2,3.6
		c15.8,12.4,25.4,28.7,29.7,48.3C338.5,124.8,334.6,143,324.3,160.9 M273.5,247.5c0.2-2.8,0.4-5.1,0.5-7.4
		c0.5-22.2,6.2-42.7,18.9-61.1c5.2-7.5,10.2-15.2,15.2-22.9c8.9-13.8,13.7-28.4,11.1-45.4c-4.6-29.4-30.4-53.9-60-54.9
		c-25.4-0.9-45,10.1-57.6,31.9c-13.2,22.7-12.9,46,0.5,68.7c4.4,7.4,9.8,14.2,14.8,21.3c10.6,14.9,18.1,31,19.9,49.4
		c0.7,6.7,1.2,13.5,1.8,20.3H273.5z"/>
	<path class="st0" d="M255.9,295.7c-5.7,0-11.3,0.1-17,0c-5.5-0.1-8.9-3.3-8.9-7.9c0-4.7,3.4-8,8.9-8c11.5-0.1,22.9-0.1,34.4,0
		c5.3,0,8.8,3.5,8.7,8.2c-0.1,4.5-3.5,7.7-8.6,7.8C267.5,295.8,261.7,295.7,255.9,295.7"/>
	<path class="st0" d="M219,111.9c-7.1-0.1-11-4.9-9.2-9.9c4.7-13.2,13.9-22.5,26.6-28.2c4-1.8,8.4,0.3,10.1,4
		c1.7,3.8,0.6,8.3-3.5,10.3c-8.6,4.3-14.6,10.6-18.7,19.3C223.2,109.7,220.1,111,219,111.9"/>
</g>
</svg>
