<svg width="30" height="28" viewBox="0 0 30 28" fill="none" xmlns="http://www.w3.org/2000/svg">
<g opacity="0.7" clip-path="url(#clip0)">
<path d="M11.0471 21.2536L8.16211 26.4263L9.1708 26.9841L12.0558 21.8114L11.0471 21.2536Z" fill="white" />
<path d="M18.9784 21.306L17.9697 21.8639L20.8553 27.0366L21.864 26.4786L18.9784 21.306Z" fill="white" />
<path d="M15.5762 20.9847H14.4224V22.1337H15.5762V20.9847Z" fill="white" />
<path d="M27.6918 22.1336H16.7303V20.9847H27.6918C28.3264 20.9847 28.8457 20.4677 28.8457 19.8358V3.17617C28.8457 2.19958 28.0957 1.45277 27.1149 1.45277H2.3072C1.67259 1.45277 1.15336 1.96979 1.15336 2.60171V19.8358C1.15336 20.4677 1.67259 20.9847 2.3072 20.9847H13.2687V22.1336H2.3072C1.03797 22.1336 -0.000488281 21.0996 -0.000488281 19.8358V2.60171C-0.000488281 1.33788 1.03797 0.303833 2.3072 0.303833H27.1149C28.7303 0.303833 29.9995 1.56766 29.9995 3.17617V19.8358C29.9995 21.0996 28.9611 22.1336 27.6918 22.1336Z" fill="white" />
<path d="M23.6532 26.1549H5.76855V27.3038H23.6532V26.1549Z" fill="white" />
<path d="M25.961 26.1549H24.8071V27.3038H25.961V26.1549Z" fill="white" />
<path d="M17.3072 7.19743C16.038 7.19743 14.9995 6.16339 14.9995 4.89956C14.9995 3.63573 16.038 2.60168 17.3072 2.60168C18.5764 2.60168 19.6149 3.63573 19.6149 4.89956C19.6149 6.16339 18.5764 7.19743 17.3072 7.19743ZM17.3072 3.75062C16.6726 3.75062 16.1534 4.26764 16.1534 4.89956C16.1534 5.53147 16.6726 6.04849 17.3072 6.04849C17.9418 6.04849 18.4611 5.53147 18.4611 4.89956C18.4611 4.26764 17.9418 3.75062 17.3072 3.75062Z" fill="white" />
<path d="M12.1148 12.9422C10.8456 12.9422 9.80713 11.9081 9.80713 10.6443C9.80713 9.38048 10.8456 8.34644 12.1148 8.34644C13.3841 8.34644 14.4225 9.38048 14.4225 10.6443C14.4225 11.9081 13.3841 12.9422 12.1148 12.9422ZM12.1148 9.49537C11.4802 9.49537 10.961 10.0124 10.961 10.6443C10.961 11.2762 11.4802 11.7932 12.1148 11.7932C12.7494 11.7932 13.2687 11.2762 13.2687 10.6443C13.2687 10.0124 12.7494 9.49537 12.1148 9.49537Z" fill="white" />
<path d="M4.61482 15.8145C3.34559 15.8145 2.30713 14.7805 2.30713 13.5166C2.30713 12.2528 3.34559 11.2188 4.61482 11.2188C5.88405 11.2188 6.92251 12.2528 6.92251 13.5166C6.92251 14.7805 5.88405 15.8145 4.61482 15.8145ZM4.61482 12.3677C3.98021 12.3677 3.46098 12.8847 3.46098 13.5166C3.46098 14.1485 3.98021 14.6656 4.61482 14.6656C5.24944 14.6656 5.76867 14.1485 5.76867 13.5166C5.76867 12.8847 5.24944 12.3677 4.61482 12.3677Z" fill="white" />
<path d="M15.731 5.77028L12.8584 8.99219L13.7212 9.75497L16.5939 6.53306L15.731 5.77028Z" fill="white" />
<path d="M10.2571 10.7388L6.00391 12.3694L6.41848 13.4416L10.6717 11.811L10.2571 10.7388Z" fill="white" />
<path d="M21.9226 19.8358C18.7495 19.8358 16.1533 17.2507 16.1533 14.0911C16.1533 10.9315 18.7495 8.34644 21.9226 8.34644C25.0956 8.34644 27.6918 10.9315 27.6918 14.0911C27.6918 17.2507 25.0956 19.8358 21.9226 19.8358ZM21.9226 9.49537C19.3841 9.49537 17.3072 11.5635 17.3072 14.0911C17.3072 16.6188 19.3841 18.6869 21.9226 18.6869C24.461 18.6869 26.5379 16.6188 26.5379 14.0911C26.5379 11.5635 24.461 9.49537 21.9226 9.49537Z" fill="white" />
<path d="M22.3452 13.6848L21.5293 14.4972L25.2008 18.153L26.0167 17.3406L22.3452 13.6848Z" fill="white" />
<path d="M22.4997 14.6656H16.7305V13.5166H21.3459V8.9209H22.4997V14.6656Z" fill="white" />
<path d="M27.6918 3.17615H22.4995V4.32508H27.6918V3.17615Z" fill="white" />
<path d="M23.6534 5.474H22.4995V6.62294H23.6534V5.474Z" fill="white" />
<path d="M27.6917 5.474H24.8071V6.62294H27.6917V5.474Z" fill="white" />
<path d="M4.03812 7.77185H2.88428V8.92079H4.03812V7.77185Z" fill="white" />
<path d="M4.03812 5.474H2.88428V6.62294H4.03812V5.474Z" fill="white" />
<path d="M4.03812 3.17615H2.88428V4.32508H4.03812V3.17615Z" fill="white" />
<path d="M14.9995 13.5166H13.8457V19.8357H14.9995V13.5166Z" fill="white" />
<path d="M12.1148 14.6655H10.9609V19.8357H12.1148V14.6655Z" fill="white" />
<path d="M9.23051 15.8145H8.07666V19.8357H9.23051V15.8145Z" fill="white" />
<path d="M6.34574 16.9634H5.19189V19.8357H6.34574V16.9634Z" fill="white" />
</g>
<defs>
<clipPath id="clip0">
<rect width="30" height="27" fill="white" transform="translate(-0.000488281 0.303833)"/>
</clipPath>
</defs>
</svg>
