<svg width="21" height="22" viewBox="0 0 21 22" fill="none" xmlns="http://www.w3.org/2000/svg">
<path d="M10.329 17.1597C9.79003 17.1597 9.25107 16.9442 8.85582 16.5489L4.54408 12.2372C4.3285 12.0216 4.2207 11.7341 4.2207 11.4467C4.2207 10.8359 4.72374 10.3328 5.33457 10.3328H7.45451V0.990723H8.17313V11.0514H5.33457C5.11898 11.0514 4.93933 11.2311 4.93933 11.4467C4.93933 11.5545 4.97526 11.6623 5.04712 11.7341L9.35886 16.0459C9.61038 16.2974 9.96969 16.4411 10.329 16.4411C10.6883 16.4411 11.0476 16.2974 11.2991 16.0459L15.6109 11.7341C15.6827 11.6623 15.7187 11.5545 15.7187 11.4467C15.7187 11.2311 15.539 11.0514 15.3234 11.0514H12.4849V3.14659H13.2035V10.3328H15.3234C15.9343 10.3328 16.4373 10.8359 16.4373 11.4467C16.4373 11.7341 16.3295 12.0216 16.1139 12.2372L11.8022 16.5489C11.4069 16.9442 10.868 17.1597 10.329 17.1597Z" fill="#4A4A4A"/>
<path d="M20.0308 21.8308H0.62793V17.8784H3.14311V19.3157H17.5156V17.8784H20.0308V21.8308ZM1.34655 21.1122H19.3121V18.597H18.2342V20.0343H2.42449V18.597H1.34655V21.1122Z" fill="#4A4A4A"/>
<path d="M15.0008 0.990723H14.2822V5.66177H15.0008V0.990723Z" fill="#4A4A4A"/>
<path d="M16.7967 3.14661H16.0781V6.0211H16.7967V3.14661Z" fill="#4A4A4A"/>
<path d="M16.7967 6.73975H16.0781V7.81768H16.7967V6.73975Z" fill="#4A4A4A"/>
<path d="M16.078 13.926H15.3594V15.3633H16.078V13.926Z" fill="#4A4A4A"/>
<path d="M16.078 16.0819H15.3594V18.2378H16.078V16.0819Z" fill="#4A4A4A"/>
<path d="M6.37683 3.14661H5.6582V6.73972H6.37683V3.14661Z" fill="#4A4A4A"/>
<path d="M4.57995 6.38037H3.86133V9.25486H4.57995V6.38037Z" fill="#4A4A4A"/>
<path d="M4.57995 4.58386H3.86133V5.6618H4.57995V4.58386Z" fill="#4A4A4A"/>
<path d="M5.2987 13.926H4.58008V16.0819H5.2987V13.926Z" fill="#4A4A4A"/>
<path d="M5.2987 16.8005H4.58008V17.8785H5.2987V16.8005Z" fill="#4A4A4A"/>
</svg>
