<svg width="20" height="22" viewBox="0 0 20 22" fill="none" xmlns="http://www.w3.org/2000/svg">
<path d="M10.2958 16.5894C9.75683 16.5894 9.21786 16.3738 8.82262 15.9786L4.51088 11.6669C4.29529 11.4513 4.1875 11.1638 4.1875 10.8764C4.1875 10.2655 4.69054 9.76251 5.30137 9.76251H7.4213V0.42041H8.13993V10.4811H5.30137C5.08578 10.4811 4.90612 10.6608 4.90612 10.8764C4.90612 10.9842 4.94205 11.092 5.01392 11.1638L9.32566 15.4756C9.57717 15.7271 9.93649 15.8708 10.2958 15.8708C10.6551 15.8708 11.0144 15.7271 11.2659 15.4756L15.5777 11.1638C15.6495 11.092 15.6855 10.9842 15.6855 10.8764C15.6855 10.6608 15.5058 10.4811 15.2902 10.4811H12.4517V2.57628H13.1703V9.76251H15.2902C15.9011 9.76251 16.4041 10.2655 16.4041 10.8764C16.4041 11.1638 16.2963 11.4513 16.0807 11.6669L11.769 15.9786C11.3737 16.3738 10.8348 16.5894 10.2958 16.5894Z" fill="white"/>
<path d="M19.9973 21.2605H0.594482V17.3081H3.10966V18.7454H17.4821V17.3081H19.9973V21.2605ZM1.31311 20.5419H19.2787V18.0267H18.2008V19.464H2.39104V18.0267H1.31311V20.5419Z" fill="white"/>
<path d="M14.9669 0.42041H14.2483V5.09146H14.9669V0.42041Z" fill="white"/>
<path d="M16.7635 2.57629H16.0449V5.45079H16.7635V2.57629Z" fill="white"/>
<path d="M16.7635 6.16943H16.0449V7.24737H16.7635V6.16943Z" fill="white"/>
<path d="M16.0448 13.3557H15.3262V14.793H16.0448V13.3557Z" fill="white"/>
<path d="M16.0448 15.5116H15.3262V17.6675H16.0448V15.5116Z" fill="white"/>
<path d="M6.34338 2.57629H5.62476V6.16941H6.34338V2.57629Z" fill="white"/>
<path d="M4.54699 5.81006H3.82837V8.68455H4.54699V5.81006Z" fill="white"/>
<path d="M4.54699 4.01355H3.82837V5.09148H4.54699V4.01355Z" fill="white"/>
<path d="M5.2655 13.3557H4.54688V15.5116H5.2655V13.3557Z" fill="white"/>
<path d="M5.2655 16.2302H4.54688V17.3082H5.2655V16.2302Z" fill="white"/>
</svg>
