<svg width="35" height="33" viewBox="0 0 35 33" fill="none" xmlns="http://www.w3.org/2000/svg">
<g clip-path="url(#clip0)">
<path d="M28.7843 28.7566H22.3274V27.5491H28.7843C29.3274 27.5491 29.8102 27.1868 29.9309 26.6434L30.7154 23.383C30.7154 23.2623 30.7757 23.2019 30.7757 23.1415C30.7757 22.5981 30.2929 22.1151 29.7498 22.1151H27.7585C27.0947 22.1151 26.5516 21.5717 26.5516 20.9076V18.7943C26.5516 18.6132 26.4309 18.4925 26.2498 18.4925C26.1292 18.4925 26.0085 18.5528 25.9481 18.6736L24.2585 22.5981C24.0774 23.0208 23.655 23.3226 23.1723 23.3226H20.5171V22.1151H23.1119L24.8016 18.1906C25.043 17.6472 25.5861 17.2849 26.1895 17.2849C27.0343 17.2849 27.6981 17.9491 27.6981 18.7943V20.9076H29.6895C30.8964 20.9076 31.9223 21.934 31.9223 23.1415C31.9223 23.3226 31.9223 23.5038 31.8619 23.6849L31.0774 26.9453C30.8361 28.0321 29.8705 28.7566 28.7843 28.7566Z" fill="white"/>
<path d="M26.25 32.3793C21.4224 32.3793 17.5 28.4548 17.5 23.6246C17.5 18.7944 21.4224 14.8699 26.25 14.8699C31.0776 14.8699 35 18.7944 35 23.6246C35 28.4548 31.0776 32.3793 26.25 32.3793ZM26.25 16.0774C22.0862 16.0774 18.7069 19.4586 18.7069 23.6246C18.7069 27.7906 22.0862 31.1718 26.25 31.1718C30.4138 31.1718 33.7931 27.7906 33.7931 23.6246C33.7931 19.4586 30.4138 16.0774 26.25 16.0774Z" fill="white"/>
<path d="M29.5692 15.9566H28.3623V1.58682H24.7416V15.7755H23.5347V0.379272H29.5692V15.9566Z" fill="white"/>
<path d="M17.4999 19.0963H16.293V5.81323H22.3275V16.8623H21.1206V7.02078H17.4999V19.0963Z" fill="white"/>
<path d="M10.2587 17.285H9.05176V8.83215H15.0862V15.4737H13.8793V10.0397H10.2587V17.285Z" fill="white"/>
<path d="M15.0863 16.6812H13.8794V17.8887H15.0863V16.6812Z" fill="white"/>
<path d="M31.9828 1.58679H30.7759V4.60566H31.9828V1.58679Z" fill="white"/>
<path d="M31.9828 5.81323H30.7759V7.02078H31.9828V5.81323Z" fill="white"/>
<path d="M7.24108 0.379272H6.03418V2.79437H7.24108V0.379272Z" fill="white"/>
<path d="M7.24108 5.20947H6.03418V7.62457H7.24108V5.20947Z" fill="white"/>
<path d="M9.65507 3.39819H7.84473V4.60574H9.65507V3.39819Z" fill="white"/>
<path d="M5.43095 3.39819H3.62061V4.60574H5.43095V3.39819Z" fill="white"/>
<path d="M3.62069 20.3038C1.62931 20.3038 0 18.6736 0 16.6811C0 14.6887 1.62931 13.0585 3.62069 13.0585C5.61207 13.0585 7.24138 14.6887 7.24138 16.6811C7.24138 18.6736 5.61207 20.3038 3.62069 20.3038ZM3.62069 14.266C2.2931 14.266 1.2069 15.3528 1.2069 16.6811C1.2069 18.0094 2.2931 19.0962 3.62069 19.0962C4.94828 19.0962 6.03448 18.0094 6.03448 16.6811C6.03448 15.3528 4.94828 14.266 3.62069 14.266Z" fill="white"/>
<path d="M3.62069 31.1717C1.62931 31.1717 0 29.5415 0 27.549C0 25.5566 1.62931 23.9264 3.62069 23.9264C5.61207 23.9264 7.24138 25.5566 7.24138 27.549C7.24138 29.5415 5.61207 31.1717 3.62069 31.1717ZM3.62069 25.1339C2.2931 25.1339 1.2069 26.2207 1.2069 27.549C1.2069 28.8773 2.2931 29.9641 3.62069 29.9641C4.94828 29.9641 6.03448 28.8773 6.03448 27.549C6.03448 26.2207 4.94828 25.1339 3.62069 25.1339Z" fill="white"/>
<path d="M12.6724 26.3415C10.6811 26.3415 9.05176 24.7113 9.05176 22.7188C9.05176 20.7264 10.6811 19.0962 12.6724 19.0962C14.6638 19.0962 16.2931 20.7264 16.2931 22.7188C16.2931 24.7113 14.6638 26.3415 12.6724 26.3415ZM12.6724 20.3037C11.3449 20.3037 10.2587 21.3905 10.2587 22.7188C10.2587 24.0471 11.3449 25.1339 12.6724 25.1339C14 25.1339 15.0862 24.0471 15.0862 22.7188C15.0862 21.3905 14 20.3037 12.6724 20.3037Z" fill="white"/>
<path d="M6.34923 17.9772L5.75049 19.0256L9.99419 21.4518L10.5929 20.4035L6.34923 17.9772Z" fill="white"/>
<path d="M9.46661 23.3054L6.07373 26.0211L6.82768 26.9641L10.2206 24.2484L9.46661 23.3054Z" fill="white"/>
</g>
<defs>
<clipPath id="clip0">
<rect width="35" height="32" fill="white" transform="translate(0 0.379272)"/>
</clipPath>
</defs>
</svg>
