<?xml version="1.0" encoding="utf-8"?>
<!-- Generator: Adobe Illustrator 21.0.0, SVG Export Plug-In . SVG Version: 6.00 Build 0)  -->
<svg version="1.1" id="Слой_1" xmlns="http://www.w3.org/2000/svg" xmlns:xlink="http://www.w3.org/1999/xlink" x="0px" y="0px"
	 viewBox="0 0 496.2 496" style="enable-background:new 0 0 496.2 496;" xml:space="preserve" fill="#ddb413">
<style type="text/css">
	.st0{clip-path:url(#SVGID_2_);}
</style>
<g>
	<defs>
		<rect id="SVGID_1_" width="496.2" height="496"/>
	</defs>
	<clipPath id="SVGID_2_">
		<use xlink:href="#SVGID_1_"  style="overflow:visible;"/>
	</clipPath>
	<path class="st0" d="M255.6,352.2h-32.2c-2.7,10.6-8.3,19.4-17.7,25.4c-7.1,4.5-14.8,6.6-23.2,6.4c-17.6-0.5-30.4-11.2-38-32h-5.8
		c-40,0-80,0-120,0C6.1,351.9,0,345.9,0,333.2c0-88.8,0-177.6,0-266.5c0-12.9,6-18.8,19.1-18.8h12.8V32h5.6c24.2,0,48.3,0,72.5,0
		c25.4-0.1,49,6.5,70.6,19.9c1.5,0.9,4.3,1.5,5.6,0.7c16-10.2,33.3-16.6,52-19.4c0.8-0.1,1.6-0.4,1.7-0.4c0.4-6.4,0.1-12.4,1.3-18.2
		c2.1-10.8,11.3-16.4,22.1-14c11.6,2.5,20.8,9.6,29.7,16.9c5.1,4.2,9.7,9.1,14.8,13.4c1.6,1.3,4,2.1,6.1,2.1c5,0,10-0.4,14.9-1.1
		c1.9-0.3,3.9-1.5,5.4-2.8c10-7.7,19.6-15.9,29.9-23.3c3.6-2.6,8.4-4.1,12.8-5.2C387.6-2,396.6,3.7,399,14.5
		c2.7,11.8-0.1,23.2-3.6,34.4c-1.5,4.9-0.5,7.5,3,11.1c6.8,7,12.4,15.1,18.8,22.5c1.7,1.9,4.1,3.8,6.5,4.4
		c15.7,4.2,31.7,7.6,47.2,12.3c6.3,1.9,12.4,5.9,17.6,10.1c10.4,8.5,10.2,20.3,0,29.1c-10.3,8.9-23,12.5-35.7,16.1
		c-6.4,1.8-12.9,3.1-19.5,4.3c-3,0.5-4.3,1.9-5.4,4.8c-3.1,8.2-6.8,16.2-10,24.4c-0.8,2-1.2,4.8-0.4,6.8
		c6.1,15.2,12.1,30.3,13.9,46.7c0.6,5.1,0.4,10.4-0.4,15.4c-2,11.2-11.1,16.9-22.2,14.4c-11.2-2.5-20.3-9-28.9-16.2
		c-6.4-5.3-12.4-11.2-18.3-17c-2.1-2-3.8-2.5-6.6-1.8c-6.1,1.5-12.3,2.5-19,3.8v21.3c0,14,0.1,28,0,42c-0.1,18.6-14,32.4-32.6,32.6
		c-4.8,0-9.7,0-14.5,0c-9.8,0.1-16.9,6.8-16.9,16c0,9.1,7.1,16,16.8,16c34.5,0.1,69-0.1,103.5,0.1c18.8,0.1,35,13.4,38.7,31.5
		c3.9,18.7-5.3,37.4-22.7,44.8c-5.5,2.3-11.9,3.5-17.9,3.6C321,448,251.5,448,182,448h-6.3c-0.5,1.9-1,3.6-1.4,5.3
		c-6.4,25.3-28.3,42.6-54.2,42.7c-26.5,0.1-53,0.1-79.5,0c-23-0.1-40.5-17.5-40.6-40.5c-0.1-10.5-0.1-21,0-31.5
		c0.2-22.3,17.7-39.9,40.1-40c26.2-0.1,52.3,0,78.5,0c28.1,0,50.2,17.8,56.3,45.2c0.2,0.8,0.3,1.6,0.5,2.6c1.5,0.1,2.8,0.2,4.1,0.2
		c70.7,0,141.3,0,212,0c13.6,0,24.2-10.2,24.5-23.2c0.4-13.8-10.4-24.7-24.5-24.7c-32.7-0.1-65.3,0-98,0
		C270.4,383.9,259.7,375,255.6,352.2 M48.2,47.4v246.3c43.1-9.4,85.5-7.1,127.8,6.8c0-2.3,0-3.9,0-5.5c0-48.5-0.1-97,0.1-145.4
		c0-3.8-1.1-5.8-4.3-7.9c-15.8-10.5-15.8-24.8-0.2-35.6c0.7-0.5,1.6-0.7,2.1-1.4c0.9-1.4,2.2-2.9,2.2-4.4c0.2-9.7,0.2-19.3,0-29
		c0-1.6-1.2-3.8-2.6-4.7c-14-9.4-29.5-16.3-46.3-17.3C101,47.7,74.9,48,48.2,47.4 M31.8,313.7V64.2H16.3v271.9h143.4
		c1.8,21.9,8.8,31.3,23.2,31.8c6.1,0.2,11.5-1.6,16.2-5.4c8.4-6.8,9.6-16.2,8.7-26.6h5.5c14.3,0,28.7-0.1,43,0c2.7,0,4.4-0.7,6.2-3
		c6.4-8.7,15.3-13.1,26.2-13.1c5.2,0,10.3,0.1,15.5,0c6.5-0.2,11.3-3.4,14.4-9.7c-1.9-0.5-3.5-1-5-1.3c-42.9-8.9-84.7-5.7-125.7,9.9
		c-2.3,0.9-5.5,0.9-7.8,0c-36.4-13.9-73.9-18.1-112.4-12.3C55.9,308.3,44.3,311.2,31.8,313.7 M319.9,240.9
		c-11.3-3.3-21.9-6.4-32.6-9.3c-1.2-0.3-3.2,1-4.4,2.1c-9.1,8.3-17.6,17.4-27.4,24.8c-7.1,5.4-15.6,9.7-24.1,12.5
		c-11,3.6-20.1-3-22.5-14.3c-1.9-9.1-1-18.1,1.9-26.6c5.8-17.1,12.5-34,18.9-50.9c1.2-3-0.8-16.7-3-18.9c-0.4-0.4-1.1-0.7-1.8-0.8
		c-10.8-2.5-21.7-5-32.5-7.5v148.4c42.1-13.9,84.4-15.9,127.5-6.6V240.9z M374.9,61.9c-1.1-0.8-1.5-1.1-1.9-1.3
		c-29.4-19.3-74.8-15.7-101.1,7.9c-2.3,2.1-2,3.6-1,6c11.4,26,25.5,50.4,40.8,74.3c3.2,5,13.8,4.9,16.8-0.2
		c9.5-16,19.3-31.9,28.2-48.3C363.4,87.8,368.8,74.7,374.9,61.9 M79.9,400.1c-14.5,0-28.4-0.5-42.4,0.1c-11.8,0.5-21.2,11.1-21.4,23
		c-0.2,11.1-0.2,22.3,0,33.4c0.2,12.7,10.6,22.9,23.4,23.3c6,0.1,12,0,18,0c7.4,0,14.8,0,22.4,0V400.1z M346.3,152.6
		c22.3-2.1,44.3-4.2,66.3-6.2c3-0.3,3.4-2.2,3.3-4.5c-0.5-8.3-0.4-16.7-2-24.8c-3.6-17.7-12.5-32.7-25.1-44.6
		C374.8,98.9,360.9,125.1,346.3,152.6 M411.6,162.6c-7.2,0.8-13.7,1.8-20.3,2.2c-17.7,1.1-35.5,2.2-53.3,2.9c-4.4,0.2-5.5,3.3-7,6
		c-0.6,1.1,0.4,3.7,1.4,5c9,11.5,18.3,22.8,27.3,34.4c2.4,3.1,4.5,3.3,7.9,1.5c12.5-6.8,23.2-15.5,31.5-27.1
		C404.5,180.1,409.1,172.3,411.6,162.6 M257,84.4c-13,18.1-18.6,38.5-16.3,62c17.7,1.7,35.1,3.4,52.9,5.1
		C281.1,128.8,269.2,106.9,257,84.4 M192.1,95.8c11.4-2.6,22.3-5.8,33.4-7.4c7.6-1.1,12-4.6,17-10.4c7.5-8.7,7.6-16.4,3.2-25.8
		c-1.2-2.6-2.2-3.6-5-3.2c-16.6,2.6-32.1,8.2-46.1,17.6c-1.1,0.7-2.3,2.2-2.3,3.3C192,78.6,192.1,87.1,192.1,95.8 M282.4,211
		c8.3-10.6,16.4-20.8,24.3-31.1c1.3-1.7,2.9-4.6,2.3-6.2c-1.4-3.6-3.6-6.6-8.7-6.7c-10.8-0.2-21.6-1.2-32.4-2
		c-7.6-0.6-15.2-1.5-23.5-2.3C251.3,183.6,263.8,199.1,282.4,211 M239.8,193.8c-4.4,12.6-9.1,25.2-13.1,38.2
		c-1.8,6-2.3,12.4-2.7,18.7c-0.3,5.3,2,6.9,6.8,4.7c4.9-2.3,9.9-5,14-8.4c9-7.4,17.6-15.4,25.6-22.5
		C260,213.8,250.3,204.2,239.8,193.8 M432.4,142.9c1.9-0.4,3.7-0.6,5.5-1.1c13-3.1,26-5.9,37.6-12.9c5.9-3.6,6-6.1,0.1-9.7
		c-14.8-8.8-31.4-12-48.1-15.3c1.3,6.7,2.8,12.8,3.6,19C431.8,129.4,431.9,135.9,432.4,142.9 M222.8,143.9c1.8-14.3,3.4-27,5.1-39.8
		c-14.6,2.8-29.6,6-43.4,13c-3.2,1.6-5.6,4.8-8.4,7.2c2.9,2.4,5.4,5.7,8.7,7C197.4,135.9,210.3,139.8,222.8,143.9 M151.1,416
		c-9.1-14.3-32.5-20.6-54.7-15.3V432c4.4,0,8.4-0.2,12.3,0.1c3.1,0.2,4.9-0.6,6.6-3.7c4.4-8.1,11.5-12.2,20.7-12.4
		C140.9,415.9,145.7,416,151.1,416 M96.3,448v31.5c26.6,3.6,48.4-2.5,54.4-15.5c-4.3,0-8.4-0.1-12.5,0c-10.7,0.3-18.5-4.1-23.7-13.5
		c-0.6-1.1-2-2.3-3.1-2.4C106.5,447.8,101.5,448,96.3,448 M375.3,229.7c1.4,1.3,2.9,3,4.6,4.3c8.9,6.9,17.5,14.2,27,20.3
		c6.7,4.3,9.5,2.2,9.1-5.6c-0.6-14.8-5.8-28.4-10.9-41.5C395.2,214.6,385.5,221.9,375.3,229.7 M320,189c-7.8,9.9-15.2,19.3-23,29.2
		c16.4,5.7,32.3,7.6,49.2,3.6C337.3,210.6,328.8,200,320,189 M291.8,37.7c-8.2-7.6-16.7-15.3-27.3-20.1c-6.8-3.1-8.4-2-8.4,5.2
		c-0.1,11,3.5,21.2,6.9,31.1C272.5,48.5,281.9,43.2,291.8,37.7 M380.9,45.6c1-8.4,2.2-16.7,2.9-25.1c0.3-3.7-1.6-5.5-5.7-3.9
		c-10.1,3.9-18.1,10.7-26,17.6C361.5,37.9,370.5,41.4,380.9,45.6 M159.4,432c-8.4,0-16.3-0.2-24.1,0.1c-4.3,0.1-7.5,3.9-7.2,8.1
		c0.3,4.4,2.8,7.5,7.1,7.7c7.9,0.4,15.9,0.1,24.2,0.1V432z"/>
	<path class="st0" d="M64.3,144.2h79.4v79.4H64.3V144.2z M127.7,160.4H80.3v47.4h47.4V160.4z"/>
	<rect x="64.4" y="112.3" class="st0" width="79.4" height="15.4"/>
	<rect x="96.4" y="80.1" class="st0" width="47.3" height="15.6"/>
	<rect x="64.4" y="80.2" class="st0" width="15.3" height="15.6"/>
	<rect x="64.4" y="240.3" class="st0" width="15.4" height="15.5"/>
	<rect x="96.3" y="240.4" class="st0" width="15.4" height="15.4"/>
	<rect x="128.4" y="240.2" class="st0" width="15.4" height="15.4"/>
</g>
</svg>
