<?xml version="1.0" encoding="utf-8"?>
<!-- Generator: Adobe Illustrator 21.0.0, SVG Export Plug-In . SVG Version: 6.00 Build 0)  -->
<svg version="1.1" id="Слой_1" xmlns="http://www.w3.org/2000/svg" xmlns:xlink="http://www.w3.org/1999/xlink" x="0px" y="0px"
	 viewBox="0 0 496 495.7" style="enable-background:new 0 0 496 495.7;" xml:space="preserve" fill="#ddb413">
<style type="text/css">
	.st0{clip-path:url(#SVGID_2_);}
</style>
<g>
	<defs>
		<rect id="SVGID_1_" width="496" height="495.7"/>
	</defs>
	<clipPath id="SVGID_2_">
		<use xlink:href="#SVGID_1_"  style="overflow:visible;"/>
	</clipPath>
	<path class="st0" d="M160,79.7c6.7,0,12.8-0.1,19,0c5,0.1,8.9-1.6,10.9-6.3c2.1-4.9,0.8-9.2-2.8-12.8c-4.4-4.4-8.8-8.6-12.8-12.5
		c11.5-11.4,22.6-22.5,34.4-34.2c3.4,3.5,7.5,7.8,11.6,12c3.6,3.8,7.6,5.9,12.9,3.8c4.8-1.9,6.9-5.5,6.9-12.1c0-5.8,0-11.6,0-17.7
		h48c0,6.4,0.1,12.7,0,19c-0.1,4.8,1.7,8.5,6.1,10.5c4.6,2.1,8.9,1.1,12.4-2.4c4.6-4.5,9-9.3,13.1-13.6
		c11.7,11.7,22.8,22.8,34.4,34.4c-4.1,4-8.6,8.2-13,12.5c-3.7,3.6-5.3,7.7-3.1,12.7c2.1,4.9,6.1,6.7,11.3,6.6c6-0.1,12,0,18.7,0
		c0,6.3,0.4,12.4-0.1,18.5c-1,13.6,1.6,26.3,6.6,38.9c6.4,15.9,11.9,32.2,17.3,48.4c1.5,4.5,3.6,6.4,8.4,7.1
		c29.2,4.3,49.4,29.6,47.6,58.9c-0.3,4.1-1.2,8.2-2.4,12.2c-1.1,3.8-2.8,7.4-4.3,11.4c10.8,10.3,19,22.7,21,37.6
		c1.8,13.6,1.8,27.5,1.6,41.3c-0.1,7.7-7.4,13.4-15.4,13.6c-5.5,0.2-11,0.2-16.5,0c-9-0.3-15.6-6.9-15.8-16c-0.1-7.8,0-15.7,0-23.5
		c-0.1-13.7-10.5-24.4-23.8-24.4c-13.5-0.1-24,10.6-24.1,24.6c-0.1,7.5,0,15,0,22.5c-0.1,10.2-6.7,16.8-17,16.9
		c-5.2,0-10.3,0.1-15.5,0c-7.7-0.3-14.9-5.8-15.2-13.3c-0.5-14.9-1.8-30,2-44.8c3.2-12.2,9.1-22.9,18-31.8c2-2,2.5-3.6,1.2-6.4
		c-7-14.6-7.3-29.5-1.6-44.6c0.6-1.6,0.7-4.2-0.2-5.3c-10.4-13.4-21-26.6-31.7-39.8c-3.4-4.2-7.7-6.5-13.2-4.1
		c-5.5,2.4-7,7-6.9,12.7c0.2,5.6,0,11.3,0,17.3h-31.6v176.2h5.7c63.8,0,127.7,0,191.5,0c25.4,0,42.4,16.9,42.4,42.2
		c0,10,0.1,20,0,30c-0.2,22.1-17.7,39.8-39.8,39.8c-146.3,0.1-292.6,0-439,0C6.6,495.7,0,489.1,0,478.6c0-100.7,0-201.3,0-302
		c0-10.3,6.7-16.9,16.9-16.9c24-0.1,48,0.1,72-0.1c2.6,0,5.6-1,7.6-2.6c20.1-15.4,40-31,60.1-46.5c2.5-1.9,3.5-3.9,3.4-7.1
		C159.8,95.8,160,88.1,160,79.7 M208,208H48.4v191.8h47.7v47.5h33.1c-2.8-14.5,0.7-21.5,13.8-28.1c19.9-10,39.8-20,59.9-29.8
		c3.8-1.8,5.2-3.8,5.2-8.2c-0.2-56-0.1-111.9-0.1-167.9V208z M16.3,175.9v303.3h164.9c-10-5-18.8-9.5-27.6-13.7
		c-2.3-1.1-5-1.8-7.6-1.8c-18.8-0.1-37.7-0.2-56.5,0c-3.4,0-5.9-0.8-8.3-3.3c-15.2-15.4-30.5-30.7-45.9-45.9
		c-2.5-2.4-3.4-4.8-3.4-8.3C32,336.4,32,266.6,32,196.8c0-1.6,0.1-3.2,0.2-5.3h47.5v-15.6H16.3z M176.3,111.6
		c13.2-0.3,23.5,4.3,28.6,16.8c5.1,12.5,0.9,23-7.9,31.3c3.7,4.1,7.1,7.8,10.6,11.7c8.9-9.4,19.2-13.3,31.4-8.6
		c12.9,4.9,17.6,15.3,17.2,28.7h15.8c-0.3-13.5,4.8-23.7,17.5-28.8c12.3-4.9,22.4-0.7,30.9,8.5c3.8-3.7,7.4-7.3,11.3-11.2
		c-9.5-8.7-13.5-19.3-8.3-31.7c5.1-12.4,15.5-17.1,28.5-16.7V95.7c-13,0.6-23-4.1-28.2-16c-5.5-12.6-1.5-23.4,8.2-32.4
		c-3.8-3.8-7.4-7.4-11.2-11.2c-9,9.4-19.6,13.4-32.1,8.3c-12.5-5.1-17-15.6-16.5-28.3H256c0.5,12.6-3.8,22.4-15.2,27.8
		c-12.9,6.1-23.9,2.1-32.8-7.3c-4,3.6-7.8,7.1-11.7,10.6c9.7,9.2,13.5,19.9,8.4,32.3C199.5,92,189,96.3,176.3,95.9V111.6z
		 M224.4,479.3h159.3v-31.4H224.4V479.3z M383.6,400H224.4v31.6h159.2V400z M432.3,479.5c9.2,0,18.2,0.6,27-0.2
		c11.7-1.1,20.5-11.4,20.7-23.2c0.2-11,0.2-22,0-32.9c-0.2-11.8-9-22.1-20.7-23.2c-8.9-0.8-17.9-0.2-27-0.2V479.5z M224.3,191.6
		v191.8H240c0-10.4,0-20.6,0-30.7c0-54.7,0-109.3,0-164c0-4.8-1.5-8.5-5.8-10.7c-4.1-2-8.3-1.6-11.7,1.4c-4.1,3.6-7.7,7.6-12.3,12.2
		H224.3z M392,207.7c-22,0-40,18-40,40c0,22.1,18,40,40,40c22.1,0,40-17.9,40-40C432,225.7,414.1,207.7,392,207.7 M330.9,183.3
		c7,9.2,13.4,17.6,19.2,25.1c9.4-5.6,18.2-10.8,27.3-16.3c-7.1-19.9-14.5-40.8-22.1-61.5c-0.5-1.3-2.4-2.7-3.7-2.8
		c-7-0.7-11.3,1.5-13.4,6.2c-2.2,4.9-1.1,8.9,4.3,14.1c4,3.9,8.2,7.6,12.6,11.7C346.6,168.1,339,175.5,330.9,183.3 M207.7,474.6
		v-69.8c-10.4,5.2-20.3,10.1-30.2,15.2c-0.9,0.5-1.5,2.5-1.5,3.8c-0.1,10.6-0.1,21.3,0,31.9c0,1.3,0.6,3.3,1.5,3.7
		C187.4,464.5,197.4,469.4,207.7,474.6 M120.7,158.7c0.1,0.3,0.2,0.7,0.3,1c17.1,0,34.2,0,51.3-0.1c1.2,0,2.5-0.8,3.4-1.6
		c4.1-3.9,8.1-7.9,12-12c3.3-3.4,4.3-7.5,2.2-12c-1.9-4.2-5.3-6.3-9.9-6.4c-5.7-0.1-11.3-0.1-17,0.1c-1.5,0-3.3,0.6-4.5,1.5
		C145.9,139,133.3,148.8,120.7,158.7 M400.4,479.3h15.4v-79.4h-15.4V479.3z M159.8,176H96.3v15.4h63.4V176z M352,351.5
		c0.5-19.4-3.7-39.5,14-53.8c-4.7-3.4-9-6.5-13.2-9.6c-19.1,17.7-17.2,40.5-16.5,63.4H352z M447.8,351.4c0.7-23,2.5-45.9-16.5-63.3
		c-4.4,3.2-8.5,6.2-13.2,9.6c17.9,14.1,13.4,34.5,14.1,53.7H447.8z M176.4,176.4v15h28.4C195.7,184.1,191.1,171.5,176.4,176.4
		 M159.8,450.6v-21.9c-4.7,2.4-9,4.3-13.1,6.7c-3.7,2.2-3.7,6.2-0.1,8.4C150.6,446.3,155,448.2,159.8,450.6 M79.8,416.1H61.6
		c5.8,6,12,12.3,18.2,18.7V416.1z"/>
	<path class="st0" d="M64.4,319.7c17.8,0,35.3,0.1,52.8-0.1c2.8,0,6-1.4,8.4-3.1c4.6-3.2,8.7-7.1,13.4-10.9c3.5,4.1,6.7,8,10.2,12.2
		c-6.1,5.1-11.6,10-17.5,14.6c-2.8,2.2-3.7,4.6-3.6,8c0.2,14.2,0.1,28.3,0.1,42.9H64.4V319.7z M80.4,335.8v31.5h31.3v-18.1
		c-3.8,3.1-7.1,5.7-10.6,8.5c-3.5-4.2-6.8-8.1-10.1-12.2c3.8-3.3,7.2-6.2,11.4-9.7H80.4z"/>
	<path class="st0" d="M64.4,239.7c17.8,0,35.3,0.1,52.8-0.1c2.8,0,6-1.4,8.4-3.1c4.6-3.2,8.7-7.1,13.4-10.9
		c3.5,4.2,6.8,8.1,10.2,12.2c-5.3,4.4-10,8.9-15.3,12.6c-4.5,3.2-6.1,6.9-6,12.5c0.4,13.3,0.1,26.6,0.1,40.8H96.1H64.4V239.7z
		 M80.3,255.8v31.5h31.3v-18.1c-3.8,3-7.1,5.7-10.6,8.5c-3.5-4.2-6.8-8.1-10.1-12.1c3.8-3.2,7.2-6.2,11.4-9.8H80.3z"/>
	<rect x="144.2" y="255.9" class="st0" width="47.4" height="15.4"/>
	<rect x="144.3" y="288" class="st0" width="47.4" height="15.5"/>
	<rect x="144.4" y="336" class="st0" width="47.4" height="15.4"/>
	<rect x="144.4" y="368" class="st0" width="47.4" height="15.4"/>
	<path class="st0" d="M208,103.5c0.1-30.8,25.3-55.8,56.1-55.8c30.8,0,55.9,25.2,55.9,56c0,31-25.2,56.1-56.4,56
		C232.9,159.6,207.9,134.3,208,103.5 M264.2,143.7c22,0,39.9-18.1,39.8-40.2c-0.1-22-18.1-39.9-40.2-39.8
		c-22,0.1-39.9,18.1-39.8,40.2C224,125.8,242.1,143.7,264.2,143.7"/>
	<path class="st0" d="M416,247.5c0.1,13.3-10.7,24.2-24,24.2c-13.1,0-23.9-10.7-24-23.8c-0.1-13.3,10.7-24.2,24-24.2
		C405.1,223.7,415.9,234.4,416,247.5 M392.1,255.7c4.3,0,7.9-3.6,7.9-7.9c0-4.3-3.5-7.9-7.8-8c-4.5-0.1-8.3,3.7-8.2,8.2
		C384.1,252.2,387.8,255.7,392.1,255.7"/>
	<path class="st0" d="M264.1,79.7c13.1,0,23.8,10.8,23.9,23.9c0.1,13.3-10.8,24.2-24.1,24.1c-13.1,0-23.8-10.8-23.9-23.9
		C239.9,90.5,250.8,79.6,264.1,79.7 M272,103.9c0.1-4.3-3.4-8-7.7-8.1c-4.3-0.2-8,3.3-8.3,7.6c-0.2,4.5,3.4,8.4,7.9,8.4
		C268.3,111.7,271.9,108.2,272,103.9"/>
</g>
</svg>
