<svg width="40" height="41" viewBox="0 0 40 41" fill="none" xmlns="http://www.w3.org/2000/svg">
<g opacity="0.7" clip-path="url(#clip0)">
<path d="M19.9997 20.3038C19.7997 20.3038 19.5997 20.2371 19.3997 20.1704L17.1997 19.0371L17.7997 17.8371L19.9997 18.9704L27.333 15.3038L19.9997 11.6371L12.6663 15.3038L15.4663 16.7038L14.8663 17.9038L12.0663 16.5038C11.5997 16.3038 11.333 15.8371 11.333 15.3038C11.333 14.7704 11.5997 14.3704 12.0663 14.1038L19.3997 10.4371C19.7997 10.2371 20.1997 10.2371 20.5997 10.4371L27.933 14.1038C28.3997 14.3038 28.6663 14.7704 28.6663 15.3038C28.6663 15.8371 28.3997 16.2371 27.933 16.5038L20.5997 20.1704C20.3997 20.2371 20.1997 20.3038 19.9997 20.3038Z" fill="white" />
<path d="M19.9997 30.3038C19.7997 30.3038 19.5997 30.2372 19.3997 30.1705L12.0663 26.5038C11.5997 26.3038 11.333 25.8372 11.333 25.3038V15.3038H12.6663V25.3038L19.9997 28.9705L27.333 25.3038V15.3038H28.6663V25.3038C28.6663 25.8372 28.3997 26.2372 27.933 26.5038L20.5997 30.1705C20.3997 30.2372 20.1997 30.3038 19.9997 30.3038Z" fill="white" />
<path d="M20.6663 19.6372H19.333V29.6372H20.6663V19.6372Z" fill="white" />
<path d="M10.9995 6.57048L9.86621 5.83714C10.0662 5.50381 10.3329 5.17048 10.5329 4.90381L11.5995 5.70381C11.3995 5.97048 11.1995 6.23714 10.9995 6.57048Z" fill="white" />
<path d="M27.3329 4.50383C25.3329 2.63717 22.7329 1.63717 19.9996 1.63717C17.2662 1.63717 14.6662 2.63717 12.6662 4.50383L11.7329 3.50383C13.9996 1.43717 16.9329 0.303833 19.9996 0.303833C23.0662 0.303833 25.9996 1.43717 28.1996 3.5705L27.3329 4.50383Z" fill="white" />
<path d="M28.9994 6.57048C28.7994 6.30381 28.5994 5.97048 28.3994 5.70381L29.4661 4.90381C29.7327 5.23714 29.9327 5.50381 30.1327 5.83714L28.9994 6.57048Z" fill="white" />
<path d="M24.9995 7.90383C23.7328 6.50383 21.9328 5.63717 19.9995 5.63717C18.0662 5.63717 16.2662 6.50383 14.9995 7.90383L13.9995 7.03717C15.4662 5.30383 17.6662 4.30383 19.9995 4.30383C22.3328 4.30383 24.5328 5.30383 25.9995 7.03717L24.9995 7.90383Z" fill="white" />
<path d="M5.53294 30.4372C5.19961 30.2372 4.86628 29.9705 4.59961 29.7705L5.39961 28.7039C5.66628 28.9039 5.93294 29.1039 6.26628 29.3039L5.53294 30.4372Z" fill="white" />
<path d="M3.26618 28.5039C1.13285 26.3039 -0.000488281 23.3705 -0.000488281 20.3039C-0.000488281 17.2372 1.13285 14.3039 3.26618 12.1039L4.19951 12.9705C2.33285 14.9705 1.33285 17.5705 1.33285 20.3039C1.33285 23.0372 2.33285 25.6372 4.19951 27.6372L3.26618 28.5039Z" fill="white" />
<path d="M5.39961 11.9039L4.59961 10.8372C4.93294 10.5705 5.19961 10.3705 5.53294 10.1705L6.26628 11.3039C5.93294 11.5039 5.66628 11.7039 5.39961 11.9039Z" fill="white" />
<path d="M6.73285 26.3038C4.99951 24.8372 3.99951 22.6372 3.99951 20.3038C3.99951 17.9705 4.99951 15.7705 6.73285 14.3038L7.59951 15.3038C6.19951 16.5705 5.33285 18.3705 5.33285 20.3038C5.33285 22.2372 6.19951 24.0372 7.59951 25.3038L6.73285 26.3038Z" fill="white" />
<path d="M29.3997 35.7038L28.333 34.9038C28.533 34.6371 28.733 34.3704 28.933 34.0371L30.0663 34.7704C29.8663 35.1038 29.6663 35.4371 29.3997 35.7038Z" fill="white" />
<path d="M19.9993 40.3038C16.9326 40.3038 13.9993 39.1704 11.7993 37.0371L12.7326 36.0371C14.7326 37.9038 17.3326 38.9038 20.066 38.9038C22.7993 38.9038 25.3993 37.9038 27.3993 36.0371L28.3326 37.0371C25.9993 39.1704 23.066 40.3038 19.9993 40.3038Z" fill="white" />
<path d="M10.5993 35.7038C10.3326 35.3704 10.1326 35.1038 9.93262 34.7704L11.066 34.0371C11.266 34.3038 11.466 34.6371 11.666 34.9038L10.5993 35.7038Z" fill="white" />
<path d="M19.9995 36.3039C17.6662 36.3039 15.4662 35.3039 13.9995 33.5705L14.9995 32.7039C16.2662 34.1705 18.0662 34.9705 19.9995 34.9705C21.9328 34.9705 23.7328 34.1039 24.9995 32.7039L25.9995 33.5705C24.5328 35.3039 22.3328 36.3039 19.9995 36.3039Z" fill="white" />
<path d="M34.5996 11.9039C34.3329 11.7039 34.0662 11.5039 33.7329 11.3039L34.4662 10.1705C34.7996 10.3705 35.1329 10.6372 35.3996 10.8372L34.5996 11.9039Z" fill="white" />
<path d="M36.7326 28.5038L35.7993 27.6371C37.666 25.6371 38.666 23.0371 38.666 20.3038C38.666 17.5704 37.666 14.9704 35.7993 12.9704L36.7993 12.0371C38.866 14.3038 39.9993 17.2371 39.9993 20.3038C39.9993 23.3704 38.866 26.3038 36.7326 28.5038Z" fill="white" />
<path d="M34.4662 30.4372L33.7329 29.3039C33.9996 29.1039 34.3329 28.9039 34.5996 28.7039L35.3996 29.7705C35.1329 29.9705 34.7996 30.1705 34.4662 30.4372Z" fill="white" />
<path d="M33.2661 26.3038L32.3994 25.3038C33.8661 24.0372 34.6661 22.2372 34.6661 20.3038C34.6661 18.3705 33.7994 16.5705 32.3994 15.3038L33.2661 14.3038C34.9994 15.8372 35.9994 18.0372 35.9994 20.3038C35.9994 22.6372 34.9994 24.8372 33.2661 26.3038Z" fill="white" />
</g>
<defs>
<clipPath id="clip0">
<rect width="40" height="40" fill="white" transform="translate(-0.000488281 0.303833)"/>
</clipPath>
</defs>
</svg>
