<svg width="14" height="18" viewBox="0 0 14 18" fill="none" xmlns="http://www.w3.org/2000/svg">
<g clip-path="url(#clip0)">
<path d="M4.46826 9.12671H3.65576C3.44543 9.12671 3.2749 9.3497 3.2749 9.62476C3.2749 9.89981 3.44543 10.1228 3.65576 10.1228H4.46826C4.6786 10.1228 4.84912 9.89981 4.84912 9.62476C4.84912 9.3497 4.6786 9.12671 4.46826 9.12671Z" fill="white"/>
<path d="M4.46826 11.2517H3.65576C3.44543 11.2517 3.2749 11.4747 3.2749 11.7498C3.2749 12.0248 3.44543 12.2478 3.65576 12.2478H4.46826C4.6786 12.2478 4.84912 12.0248 4.84912 11.7498C4.84912 11.4747 4.6786 11.2517 4.46826 11.2517Z" fill="white"/>
<path d="M4.46826 13.3767H3.65576C3.44543 13.3767 3.2749 13.5997 3.2749 13.8748C3.2749 14.1498 3.44543 14.3728 3.65576 14.3728H4.46826C4.6786 14.3728 4.84912 14.1498 4.84912 13.8748C4.84912 13.5997 4.6786 13.3767 4.46826 13.3767Z" fill="white"/>
<path d="M7.71826 9.12671H6.90576C6.69543 9.12671 6.5249 9.3497 6.5249 9.62476C6.5249 9.89981 6.69543 10.1228 6.90576 10.1228H7.71826C7.9286 10.1228 8.09912 9.89981 8.09912 9.62476C8.09912 9.3497 7.9286 9.12671 7.71826 9.12671Z" fill="white"/>
<path d="M7.71826 11.2517H6.90576C6.69543 11.2517 6.5249 11.4747 6.5249 11.7498C6.5249 12.0248 6.69543 12.2478 6.90576 12.2478H7.71826C7.9286 12.2478 8.09912 12.0248 8.09912 11.7498C8.09912 11.4747 7.9286 11.2517 7.71826 11.2517Z" fill="white"/>
<path d="M7.71826 13.3767H6.90576C6.69543 13.3767 6.5249 13.5997 6.5249 13.8748C6.5249 14.1498 6.69543 14.3728 6.90576 14.3728H7.71826C7.9286 14.3728 8.09912 14.1498 8.09912 13.8748C8.09912 13.5997 7.9286 13.3767 7.71826 13.3767Z" fill="white"/>
<path d="M10.9683 9.12671H10.1558C9.94543 9.12671 9.7749 9.3497 9.7749 9.62476C9.7749 9.89981 9.94543 10.1228 10.1558 10.1228H10.9683C11.1786 10.1228 11.3491 9.89981 11.3491 9.62476C11.3491 9.3497 11.1786 9.12671 10.9683 9.12671Z" fill="white"/>
<path d="M10.9683 11.2517H10.1558C9.94543 11.2517 9.7749 11.4747 9.7749 11.7498C9.7749 12.0248 9.94543 12.2478 10.1558 12.2478H10.9683C11.1786 12.2478 11.3491 12.0248 11.3491 11.7498C11.3491 11.4747 11.1786 11.2517 10.9683 11.2517Z" fill="white"/>
<path d="M10.9683 13.3767H10.1558C9.94543 13.3767 9.7749 13.5997 9.7749 13.8748C9.7749 14.1498 9.94543 14.3728 10.1558 14.3728H10.9683C11.1786 14.3728 11.3491 14.1498 11.3491 13.8748C11.3491 13.5997 11.1786 13.3767 10.9683 13.3767Z" fill="white"/>
<path d="M12.6694 3.01733H11.7554V2.18726C11.7554 1.9122 11.5848 1.68921 11.3745 1.68921C11.1642 1.68921 10.9937 1.9122 10.9937 2.18726V3.01733H7.69287V2.18726C7.69287 1.9122 7.52235 1.68921 7.31201 1.68921C7.10168 1.68921 6.93115 1.9122 6.93115 2.18726V3.01733H3.63037V2.18726C3.63037 1.9122 3.45985 1.68921 3.24951 1.68921C3.03918 1.68921 2.86865 1.9122 2.86865 2.18726V3.01733H1.95459C1.32457 3.01733 0.812012 3.68761 0.812012 4.51147V15.5349C0.812012 16.3588 1.32457 17.0291 1.95459 17.0291H12.6694C13.2995 17.0291 13.812 16.3588 13.812 15.5349C13.812 15.2134 13.812 4.79121 13.812 4.51147C13.812 3.68761 13.2995 3.01733 12.6694 3.01733ZM1.57373 4.51147C1.57373 4.23685 1.74458 4.01343 1.95459 4.01343H2.86865V4.84351C2.86865 5.11856 3.03918 5.34155 3.24951 5.34155C3.45985 5.34155 3.63037 5.11856 3.63037 4.84351V4.01343H6.93115V4.84351C6.93115 5.11856 7.10168 5.34155 7.31201 5.34155C7.52235 5.34155 7.69287 5.11856 7.69287 4.84351V4.01343H10.9937V4.84351C10.9937 5.11856 11.1642 5.34155 11.3745 5.34155C11.5848 5.34155 11.7554 5.11856 11.7554 4.84351V4.01343H12.6694C12.8794 4.01343 13.0503 4.23685 13.0503 4.51147V6.47046H1.57373V4.51147ZM12.6694 16.033H1.95459C1.74458 16.033 1.57373 15.8095 1.57373 15.5349V7.46655H13.0503V15.5349C13.0503 15.8095 12.8794 16.033 12.6694 16.033Z" fill="white"/>
</g>
<defs>
<clipPath id="clip0">
<rect width="13" height="17" fill="white" transform="translate(0.812012 0.859131)"/>
</clipPath>
</defs>
</svg>
