<svg width="32" height="33" viewBox="0 0 32 33" fill="none" xmlns="http://www.w3.org/2000/svg">
<g opacity="0.7" clip-path="url(#clip0)">
<path d="M7.2476 32.7192L6.20346 32.105L6.69482 31.3065C6.81766 31.1223 6.81766 30.9994 6.81766 30.8152C6.81766 30.4466 6.6334 30.0781 6.3263 29.8938L3.0096 27.9284C2.82534 27.8056 2.7025 27.7441 2.51823 27.7441C2.14971 27.7441 1.78119 27.9284 1.59693 28.2355L1.04415 29.0954L0 28.4198L0.552783 27.6213C0.921305 27.0071 1.71977 26.5771 2.51823 26.5771C2.88676 26.5771 3.25528 26.7 3.6238 26.8843L6.9405 28.8497C7.61612 29.2796 8.04607 30.0167 8.04607 30.8152C8.04607 31.1837 7.92323 31.5522 7.73896 31.9207L7.2476 32.7192Z" fill="white" />
<path d="M7.12508 30.1396L6.63372 28.9726C8.59917 28.1127 10.9331 27.0072 11.3017 26.7001C12.1001 25.9016 13.5742 23.5062 13.5742 21.2951C13.5742 20.8037 13.1443 20.3738 12.6529 20.3738C12.4687 20.3738 12.2844 20.4352 12.1615 20.4966L9.02911 22.5849C8.84485 22.7692 8.53775 22.8306 8.23065 22.8306C7.43218 22.8306 6.81798 22.2164 6.81798 21.4179C6.81798 21.1722 6.8794 20.9265 7.00224 20.6809L8.53775 18.2241C8.59917 18.1012 8.66059 18.0398 8.66059 17.917C8.66059 17.5484 8.41491 17.3027 8.04639 17.3027C7.86212 17.3027 7.67786 17.3642 7.55502 17.5484C6.81798 18.4697 4.79111 20.9265 4.29974 21.8479C3.8698 22.7077 3.74696 25.5945 3.74696 27.2528H2.51855C2.51855 26.7615 2.51855 22.7077 3.19418 21.2951C3.80838 20.0052 6.51088 16.8728 6.5723 16.75C6.8794 16.32 7.43218 16.0743 7.98497 16.0743C9.02911 16.0743 9.82758 16.8728 9.82758 17.917C9.82758 18.2855 9.76616 18.5926 9.58189 18.8997L8.04639 21.3565V21.4179C8.04639 21.6022 8.16923 21.6022 8.23065 21.6022C8.29207 21.6022 8.29207 21.6022 8.29207 21.6022L11.4859 19.5139C11.8544 19.2682 12.223 19.1454 12.6529 19.1454C13.8199 19.1454 14.8026 20.1281 14.8026 21.2951C14.8026 23.7519 13.2057 26.5158 12.1615 27.5599C11.5473 28.2356 8.16923 29.7097 7.12508 30.1396Z" fill="white" />
<path d="M13.2341 16.4775L10.6431 20.0613L11.6386 20.781L14.2296 17.1972L13.2341 16.4775Z" fill="white" />
<path d="M10.6113 14.8074L8.77539 17.3453L9.77065 18.0653L11.6066 15.5274L10.6113 14.8074Z" fill="white" />
<path d="M16.0311 17.9169C11.9773 17.9169 8.66064 14.6002 8.66064 10.5465C8.66064 6.49272 11.9773 3.17603 16.0311 3.17603C20.0848 3.17603 23.4015 6.49272 23.4015 10.5465C23.4015 14.6002 20.0848 17.9169 16.0311 17.9169ZM16.0311 4.40443C12.653 4.40443 9.88905 7.16835 9.88905 10.5465C9.88905 13.9246 12.653 16.6885 16.0311 16.6885C19.4092 16.6885 22.1731 13.9246 22.1731 10.5465C22.1731 7.16835 19.4092 4.40443 16.0311 4.40443Z" fill="white" />
<path d="M16.0308 15.4601C13.3283 15.4601 11.1172 13.249 11.1172 10.5465H12.3456C12.3456 12.5734 14.0039 14.2317 16.0308 14.2317V15.4601Z" fill="white" />
<path d="M20.9444 10.5464H19.716C19.716 8.51957 18.0576 6.86122 16.0308 6.86122V5.63281C18.7333 5.63281 20.9444 7.84395 20.9444 10.5464Z" fill="white" />
<path d="M29.5433 4.40442H28.3149V5.63283H29.5433V4.40442Z" fill="white" />
<path d="M27.0865 4.40442H22.7871V5.63283H27.0865V4.40442Z" fill="white" />
<path d="M31.3861 8.08972H24.6299V9.31813H31.3861V8.08972Z" fill="white" />
<path d="M7.43186 8.08972H4.36084V9.31813H7.43186V8.08972Z" fill="white" />
<path d="M29.5433 11.7749H28.3149V13.0033H29.5433V11.7749Z" fill="white" />
<path d="M27.0867 11.7749H24.6299V13.0033H27.0867V11.7749Z" fill="white" />
<path d="M31.3861 16.0743H24.0156V17.3027H31.3861V16.0743Z" fill="white" />
<path d="M29.5433 19.7595H28.3149V20.9879H29.5433V19.7595Z" fill="white" />
<path d="M27.0865 19.7595H22.7871V20.9879H27.0865V19.7595Z" fill="white" />
<path d="M29.5431 25.2874H13.3282V24.059H29.5431C30.2188 24.059 30.7715 23.5062 30.7715 22.8306V3.17605C30.7715 2.50043 30.2188 1.94765 29.5431 1.94765H6.2034C5.52777 1.94765 4.97499 2.50043 4.97499 3.17605V20.3737H3.74658V3.17605C3.74658 1.8248 4.85215 0.719238 6.2034 0.719238H29.5431C30.8944 0.719238 31.9999 1.8248 31.9999 3.17605V22.8306C31.9999 24.1818 30.8944 25.2874 29.5431 25.2874Z" fill="white" />
<path d="M18.4877 24.6732H17.2593V27.13H18.4877V24.6732Z" fill="white" />
<path d="M17.8733 31.4294C16.5221 31.4294 15.4165 30.3238 15.4165 28.9726C15.4165 27.6213 16.5221 26.5157 17.8733 26.5157C19.2246 26.5157 20.3301 27.6213 20.3301 28.9726C20.3301 30.3238 19.2246 31.4294 17.8733 31.4294ZM17.8733 27.7442C17.1977 27.7442 16.6449 28.2969 16.6449 28.9726C16.6449 29.6482 17.1977 30.201 17.8733 30.201C18.5489 30.201 19.1017 29.6482 19.1017 28.9726C19.1017 28.2969 18.5489 27.7442 17.8733 27.7442Z" fill="white" />
<path d="M16.031 28.3584H12.96V29.5868H16.031V28.3584Z" fill="white" />
<path d="M25.8583 28.3584H19.7163V29.5868H25.8583V28.3584Z" fill="white" />
<path d="M28.3148 28.3584H27.0864V29.5868H28.3148V28.3584Z" fill="white" />
</g>
<defs>
<clipPath id="clip0">
<rect width="32" height="32" fill="white" transform="translate(0 0.719238)"/>
</clipPath>
</defs>
</svg>
