<svg width="30" height="36" viewBox="0 0 30 36" fill="none" xmlns="http://www.w3.org/2000/svg">
<g opacity="0.7" clip-path="url(#clip0)">
<path d="M27.5999 29.8544H26.3999V31.0613H27.5999V29.8544Z" fill="#FFC600" />
<path d="M25.2 31.6647H24V32.8716H25.2V31.6647Z" fill="#FFC600" />
<path d="M29.4002 27.4406H28.2002V28.6474H29.4002V27.4406Z" fill="#FFC600" />
<path d="M15 33.475C6.72 33.475 0 26.7164 0 18.3888C0 15.3112 0.96 12.294 2.7 9.75951L3.66 10.4233C2.04 12.7768 1.2 15.5526 1.2 18.3888C1.2 26.0526 7.38 32.2681 15 32.2681C22.62 32.2681 28.8 26.0526 28.8 18.3888C28.8 10.725 22.62 4.50951 15 4.50951C12.42 4.50951 9.9 5.23365 7.74 6.56123L7.08 5.53537C9.48 4.08709 12.18 3.30261 15 3.30261C23.28 3.30261 30 10.0612 30 18.3888C30 26.7164 23.28 33.475 15 33.475Z" fill="#FFC600" />
<path d="M5.46012 8.37158L4.62012 7.52675C4.86012 7.28537 5.16012 7.04399 5.46012 6.80261L6.24012 7.70778C5.94012 7.88882 5.70012 8.1302 5.46012 8.37158Z" fill="#FFC600" />
<path d="M1.01992 28.8284C0.839922 28.5267 0.599922 28.2853 0.419922 27.9836L1.43992 27.3198C1.61992 27.6215 1.79992 27.8629 1.97992 28.1043L1.01992 28.8284Z" fill="#FFC600" />
<path d="M14.9998 35.8888C10.1998 35.8888 5.69984 33.9578 2.33984 30.3974L3.23984 29.5526C6.29984 32.8716 10.4998 34.6819 14.9998 34.6819V35.8888Z" fill="#FFC600" />
<path d="M28.56 9.51814C28.38 9.21642 28.2 8.97504 28.02 8.73366L28.98 8.00952C29.16 8.31125 29.4 8.55262 29.58 8.85435L28.56 9.51814Z" fill="#FFC600" />
<path d="M26.76 7.16466C23.7 3.90603 19.5 2.09569 15 2.09569V0.888794C19.8 0.888794 24.3 2.81983 27.66 6.38017L26.76 7.16466Z" fill="#FFC600" />
<path d="M23.76 30.4577C22.2 30.337 21 29.0094 21 27.4405C21 25.7508 22.32 24.4232 24 24.4232C25.56 24.4232 26.88 25.6301 27 27.1991L25.8 27.3198C25.74 26.4146 24.96 25.6301 24 25.6301C22.98 25.6301 22.2 26.4146 22.2 27.4405C22.2 28.406 22.92 29.1905 23.88 29.2508L23.76 30.4577Z" fill="#FFC600" />
<path d="M9.6001 15.975C7.9201 15.975 6.6001 14.6474 6.6001 12.9578C6.6001 11.2681 7.9201 9.94055 9.6001 9.94055C11.2801 9.94055 12.6001 11.2681 12.6001 12.9578C12.6001 14.6474 11.2801 15.975 9.6001 15.975ZM9.6001 11.1474C8.5801 11.1474 7.8001 11.9319 7.8001 12.9578C7.8001 13.9837 8.5801 14.7681 9.6001 14.7681C10.6201 14.7681 11.4001 13.9837 11.4001 12.9578C11.4001 11.9319 10.6201 11.1474 9.6001 11.1474Z" fill="#FFC600" />
<path d="M20.3999 18.9922C18.7199 18.9922 17.3999 17.6647 17.3999 15.975C17.3999 14.2853 18.7199 12.9578 20.3999 12.9578C22.0799 12.9578 23.3999 14.2853 23.3999 15.975C23.3999 17.6647 22.0799 18.9922 20.3999 18.9922ZM20.3999 14.1647C19.3799 14.1647 18.5999 14.9491 18.5999 15.975C18.5999 17.0009 19.3799 17.7853 20.3999 17.7853C21.4199 17.7853 22.1999 17.0009 22.1999 15.975C22.1999 14.9491 21.4199 14.1647 20.3999 14.1647Z" fill="#FFC600" />
<path d="M12.6001 26.8371C10.9201 26.8371 9.6001 25.5095 9.6001 23.8199C9.6001 22.1302 10.9201 20.8026 12.6001 20.8026C14.2801 20.8026 15.6001 22.1302 15.6001 23.8199C15.6001 25.5095 14.2801 26.8371 12.6001 26.8371ZM12.6001 22.0095C11.5801 22.0095 10.8001 22.794 10.8001 23.8199C10.8001 24.8457 11.5801 25.6302 12.6001 25.6302C13.6201 25.6302 14.4001 24.8457 14.4001 23.8199C14.4001 22.794 13.6201 22.0095 12.6001 22.0095Z" fill="#FFC600" />
<path d="M10.62 10.8457L9.54004 10.363C10.98 7.22502 13.62 4.69054 16.86 3.48364L17.28 4.63019C14.34 5.7164 11.94 7.94916 10.62 10.8457Z" fill="#FFC600" />
<path d="M10.3199 22.4922C9.0599 20.4405 8.3999 18.0871 8.3999 15.6733C8.3999 15.5526 8.3999 15.4319 8.3999 15.2509L9.5999 15.3112C9.5999 15.4319 9.5999 15.5526 9.5999 15.6733C9.5999 17.8457 10.1999 20.0181 11.3399 21.8888L10.3199 22.4922Z" fill="#FFC600" />
<path d="M21.2997 28.6474C18.5397 28.6474 15.9597 27.8026 13.7397 26.1733L14.4597 25.2078C16.5597 26.7164 19.0797 27.5009 21.6597 27.4405L21.7197 28.6474C21.5397 28.6474 21.4197 28.6474 21.2997 28.6474Z" fill="#FFC600" />
<path d="M25.2003 25.1474L24.0003 25.0871C24.0003 24.9664 24.0003 24.8457 24.0003 24.725C24.0003 22.2509 23.2203 19.8371 21.7803 17.8457L22.7403 17.1216C24.3603 19.3543 25.2003 21.9492 25.2003 24.725C25.2003 24.8457 25.2003 24.9664 25.2003 25.1474Z" fill="#FFC600" />
<path d="M18.4799 14.7077C16.5599 13.5008 14.2799 12.8974 11.9399 12.9577L11.8799 11.7508C14.3999 11.6301 16.9199 12.3543 19.0799 13.6818L18.4799 14.7077Z" fill="#FFC600" />
<path d="M15.06 23.337L14.46 22.3112C16.32 21.2853 17.82 19.7164 18.84 17.906L19.86 18.5095C18.78 20.5008 17.1 22.1905 15.06 23.337Z" fill="#FFC600" />
<path d="M21.4798 13.6819L20.2798 13.5008C20.3398 13.0181 20.3998 12.5353 20.3998 11.9922C20.3998 9.33704 19.4998 6.68187 17.8198 4.63014L18.7198 3.90601C20.5798 6.19911 21.5998 9.09566 21.5998 12.0526C21.5998 12.5957 21.5398 13.1388 21.4798 13.6819Z" fill="#FFC600" />
<path d="M8.7001 25.0267C5.7601 25.0267 2.8801 24.0009 0.600098 22.1302L1.3801 21.1647C3.4801 22.8543 6.0601 23.7595 8.7601 23.7595C9.2401 23.7595 9.7801 23.6992 10.2601 23.6388L10.4401 24.8457C9.7801 24.9664 9.2401 25.0267 8.7001 25.0267Z" fill="#FFC600" />
<path d="M12.4799 32.9922C11.7599 31.3629 11.3999 29.5526 11.3999 27.7422C11.3999 27.1991 11.4599 26.656 11.5199 26.1129L12.7199 26.2939C12.6599 26.7767 12.5999 27.2595 12.5999 27.8026C12.5999 29.4319 12.9599 31.0612 13.6199 32.5698L12.4799 32.9922Z" fill="#FFC600" />
<path d="M29.0401 17.0008C27.5401 16.337 25.9801 15.975 24.3001 15.975C23.8201 15.975 23.2801 16.0353 22.8001 16.0957L22.6201 14.8888C23.1601 14.8284 23.7001 14.7681 24.2401 14.7681C26.0401 14.7681 27.7801 15.1301 29.4601 15.8543L29.0401 17.0008Z" fill="#FFC600" />
<path d="M1.32018 20.6819L0.180176 20.2595C1.38018 17.0009 3.84018 14.3457 7.02018 12.8975L7.50018 13.9837C4.62018 15.3113 2.40018 17.725 1.32018 20.6819Z" fill="#FFC600" />
</g>
<defs>
<clipPath id="clip0">
<rect width="30" height="35" fill="#FFC600" transform="translate(0 0.888794)"/>
</clipPath>
</defs>
</svg>
