<svg xmlns="http://www.w3.org/2000/svg" xmlns:xlink="http://www.w3.org/1999/xlink" width="81" height="81" viewBox="0 0 81 81">
  <defs>
    <linearGradient id="linear-gradient" x1="1.35" y1="-2.369" x2="3.003" y2="1.489" gradientUnits="objectBoundingBox">
      <stop offset="0" stop-color="#ff4e24"/>
      <stop offset="0.907" stop-color="#ff7f24"/>
      <stop offset="1" stop-color="#ff8024"/>
    </linearGradient>
  </defs>
  <g id="mathematics" transform="translate(0 -0.393)" opacity="0.5">
    <path id="Объединение_1" data-name="Объединение 1" d="M73.161,81a5.231,5.231,0,0,1-5.226-5.226V65.322H28.742V78.387A2.616,2.616,0,0,1,26.129,81H2.613A2.616,2.616,0,0,1,0,78.387V41.807a2.616,2.616,0,0,1,2.613-2.613V7.839A2.616,2.616,0,0,1,0,5.226V2.612A2.616,2.616,0,0,1,2.613,0H78.387A2.616,2.616,0,0,1,81,2.612V5.226a2.616,2.616,0,0,1-2.613,2.613V33.293L81,40.264V75.774A5.231,5.231,0,0,1,75.774,81Zm-2.612-5.226a2.615,2.615,0,0,0,2.612,2.612h2.613a2.615,2.615,0,0,0,2.612-2.612V73.161H70.549ZM2.613,78.387H26.131l0-36.58H2.613Zm67.935-7.838h7.838V67.935H70.549Zm5.226-5.227h2.612V41.807H75.774Zm-5.226,0h2.612V41.807H70.549ZM28.742,62.71H67.935V40.264l3.543-9.451a3.209,3.209,0,0,1,2.989-2.071,3.175,3.175,0,0,1,1.307.289V7.839H5.226V39.193H20.377l6.128-9.534-6.143-6.143H7.839V20.9h13.6l6.507,6.507,9.936-15.455,11.98,18.637,7.076-7.076H70.549v2.612H58.025L51.313,32.84,63.8,52.258H28.742Zm0-18.249v5.184h27.62L37.887,39.382Zm10.451-7.342,18.3,10.165-18.3-28.465ZM23.482,39.193h2.647a2.608,2.608,0,0,1,2.582,2.3l7.87-4.372v-18.3Zm47.646,0h6.681l-.979-2.612H72.107Zm2.8-7.461-.839,2.235H75.85l-.838-2.235a.605.605,0,0,0-1.087,0ZM2.613,5.226H78.389l0-2.613H2.613ZM5.226,75.774V54.87h18.29v20.9ZM18.29,73.161H20.9V67.935H18.29Zm-5.226,0h2.612V67.935H13.065Zm-5.226,0h2.612V67.935H7.839ZM18.29,65.322H20.9V62.71H18.29Zm-5.226,0h2.612V62.71H13.065Zm-5.226,0h2.612V62.71H7.839ZM18.29,60.1H20.9V57.484H18.29Zm-5.226,0h2.612V57.484H13.065Zm-5.226,0h2.612V57.484H7.839Zm36.58-2.612V54.87h2.613v2.613Zm-5.226,0V54.87h2.613v2.613Zm-5.226,0V54.87h2.613v2.613ZM5.226,52.258V44.419h18.29v7.839Zm2.613-2.613H20.9V47.032H7.839ZM67.935,20.9V18.29h2.613V20.9Zm-10.451,0V18.29h7.838V20.9ZM18.29,18.29V15.677H20.9V18.29Zm-10.451,0V15.677h7.838V18.29Zm49.645-2.613V13.065H70.549v2.612ZM7.839,13.065V10.451H20.9v2.613Z" transform="translate(0 0.393)" fill="url(#linear-gradient)"/>
  </g>
</svg>
