<svg xmlns="http://www.w3.org/2000/svg" xmlns:xlink="http://www.w3.org/1999/xlink" width="88.004" height="81.394" viewBox="0 0 88.004 81.394">
  <defs>
    <linearGradient id="linear-gradient" x1="0.127" y1="0.107" x2="0.822" y2="0.841" gradientUnits="objectBoundingBox">
      <stop offset="0" stop-color="#0e5589"/>
      <stop offset="1" stop-color="#452dc2"/>
    </linearGradient>
  </defs>
  <path id="Контур_28" data-name="Контур 28" d="M12.622-66.293a10.347,10.347,0,0,1-.334,2.745,5.855,5.855,0,0,1-.977,2.045A4.27,4.27,0,0,1,9.743-60.23a4.883,4.883,0,0,1-2.116.439,4.874,4.874,0,0,1-1.9-.362,3.788,3.788,0,0,1-1.5-1.139,5.62,5.62,0,0,1-.982-1.988,10.446,10.446,0,0,1-.353-2.9,10.209,10.209,0,0,1,.338-2.745,5.968,5.968,0,0,1,.977-2.045,4.21,4.21,0,0,1,1.573-1.273A4.923,4.923,0,0,1,7.9-72.68a4.874,4.874,0,0,1,1.9.362,3.768,3.768,0,0,1,1.492,1.134,5.618,5.618,0,0,1,.977,1.983A10.487,10.487,0,0,1,12.622-66.293Zm-7.378.038v.357a3.063,3.063,0,0,0,.019.338l4.671-3.375a3.107,3.107,0,0,0-.882-1.4,1.965,1.965,0,0,0-1.292-.453,1.908,1.908,0,0,0-.991.272,2.345,2.345,0,0,0-.8.834,4.847,4.847,0,0,0-.534,1.411A9.059,9.059,0,0,0,5.244-66.255Zm5.033.038q0-.162-.01-.329t-.01-.319L5.615-63.509a2.87,2.87,0,0,0,.858,1.373,1.984,1.984,0,0,0,1.287.448,1.908,1.908,0,0,0,1-.276,2.382,2.382,0,0,0,.8-.834,4.693,4.693,0,0,0,.529-1.411A9.292,9.292,0,0,0,10.277-66.216Zm4.748,6.206v-2.069H18.2v-8.008l-2.765,1.525-.763-1.9,3.956-2.088h1.954v10.467h2.736v2.069Zm19.963-6.282a10.347,10.347,0,0,1-.334,2.745,5.855,5.855,0,0,1-.977,2.045,4.27,4.27,0,0,1-1.568,1.273,4.883,4.883,0,0,1-2.116.439,4.874,4.874,0,0,1-1.9-.362,3.788,3.788,0,0,1-1.5-1.139,5.62,5.62,0,0,1-.982-1.988,10.446,10.446,0,0,1-.353-2.9,10.209,10.209,0,0,1,.338-2.745,5.968,5.968,0,0,1,.977-2.045,4.21,4.21,0,0,1,1.573-1.273,4.923,4.923,0,0,1,2.116-.439,4.874,4.874,0,0,1,1.9.362,3.768,3.768,0,0,1,1.492,1.134,5.618,5.618,0,0,1,.977,1.983A10.487,10.487,0,0,1,34.988-66.293Zm-7.378.038v.357a3.063,3.063,0,0,0,.019.338L32.3-68.933a3.107,3.107,0,0,0-.882-1.4,1.965,1.965,0,0,0-1.292-.453,1.908,1.908,0,0,0-.991.272,2.345,2.345,0,0,0-.8.834,4.847,4.847,0,0,0-.534,1.411A9.059,9.059,0,0,0,27.609-66.255Zm5.033.038q0-.162-.01-.329t-.01-.319l-4.642,3.356a2.87,2.87,0,0,0,.858,1.373,1.984,1.984,0,0,0,1.287.448,1.908,1.908,0,0,0,1-.276,2.382,2.382,0,0,0,.8-.834,4.693,4.693,0,0,0,.529-1.411A9.292,9.292,0,0,0,32.643-66.216Zm13.528-.076a10.347,10.347,0,0,1-.334,2.745A5.855,5.855,0,0,1,44.86-61.5a4.27,4.27,0,0,1-1.568,1.273,4.883,4.883,0,0,1-2.116.439,4.874,4.874,0,0,1-1.9-.362,3.788,3.788,0,0,1-1.5-1.139A5.62,5.62,0,0,1,36.8-63.28a10.446,10.446,0,0,1-.353-2.9,10.209,10.209,0,0,1,.338-2.745,5.968,5.968,0,0,1,.977-2.045,4.21,4.21,0,0,1,1.573-1.273,4.923,4.923,0,0,1,2.116-.439,4.874,4.874,0,0,1,1.9.362,3.768,3.768,0,0,1,1.492,1.134,5.618,5.618,0,0,1,.977,1.983A10.487,10.487,0,0,1,46.171-66.293Zm-7.378.038v.357a3.062,3.062,0,0,0,.019.338l4.671-3.375a3.107,3.107,0,0,0-.882-1.4,1.965,1.965,0,0,0-1.292-.453,1.908,1.908,0,0,0-.991.272,2.345,2.345,0,0,0-.8.834,4.847,4.847,0,0,0-.534,1.411A9.059,9.059,0,0,0,38.792-66.255Zm5.033.038q0-.162-.01-.329t-.01-.319l-4.642,3.356a2.87,2.87,0,0,0,.858,1.373,1.984,1.984,0,0,0,1.287.448,1.908,1.908,0,0,0,1-.276,2.382,2.382,0,0,0,.8-.834,4.693,4.693,0,0,0,.529-1.411A9.292,9.292,0,0,0,43.826-66.216Zm4.748,6.206v-2.069h3.174v-8.008l-2.765,1.525-.763-1.9,3.956-2.088h1.954v10.467h2.736v2.069Zm19.963-6.282a10.347,10.347,0,0,1-.334,2.745,5.855,5.855,0,0,1-.977,2.045,4.27,4.27,0,0,1-1.568,1.273,4.883,4.883,0,0,1-2.116.439,4.874,4.874,0,0,1-1.9-.362,3.788,3.788,0,0,1-1.5-1.139,5.621,5.621,0,0,1-.982-1.988,10.446,10.446,0,0,1-.353-2.9,10.209,10.209,0,0,1,.338-2.745,5.968,5.968,0,0,1,.977-2.045A4.21,4.21,0,0,1,61.7-72.241a4.923,4.923,0,0,1,2.116-.439,4.874,4.874,0,0,1,1.9.362,3.768,3.768,0,0,1,1.492,1.134,5.618,5.618,0,0,1,.977,1.983A10.487,10.487,0,0,1,68.537-66.293Zm-7.378.038v.357a3.063,3.063,0,0,0,.019.338l4.671-3.375a3.107,3.107,0,0,0-.882-1.4,1.965,1.965,0,0,0-1.292-.453,1.908,1.908,0,0,0-.991.272,2.345,2.345,0,0,0-.8.834,4.847,4.847,0,0,0-.534,1.411A9.059,9.059,0,0,0,61.158-66.255Zm5.033.038q0-.162-.01-.329t-.01-.319L61.53-63.509a2.87,2.87,0,0,0,.858,1.373,1.984,1.984,0,0,0,1.287.448,1.907,1.907,0,0,0,1-.276,2.382,2.382,0,0,0,.8-.834A4.693,4.693,0,0,0,66-64.21,9.293,9.293,0,0,0,66.192-66.216Zm13.528-.076a10.347,10.347,0,0,1-.334,2.745,5.855,5.855,0,0,1-.977,2.045,4.27,4.27,0,0,1-1.568,1.273,4.883,4.883,0,0,1-2.116.439,4.874,4.874,0,0,1-1.9-.362,3.788,3.788,0,0,1-1.5-1.139,5.62,5.62,0,0,1-.982-1.988,10.446,10.446,0,0,1-.353-2.9,10.209,10.209,0,0,1,.338-2.745,5.968,5.968,0,0,1,.977-2.045,4.21,4.21,0,0,1,1.573-1.273A4.923,4.923,0,0,1,75-72.68a4.874,4.874,0,0,1,1.9.362,3.768,3.768,0,0,1,1.492,1.134,5.617,5.617,0,0,1,.977,1.983A10.487,10.487,0,0,1,79.72-66.293Zm-7.378.038v.357a3.065,3.065,0,0,0,.019.338l4.671-3.375a3.107,3.107,0,0,0-.882-1.4,1.965,1.965,0,0,0-1.292-.453,1.908,1.908,0,0,0-.991.272,2.345,2.345,0,0,0-.8.834,4.847,4.847,0,0,0-.534,1.411A9.059,9.059,0,0,0,72.341-66.255Zm5.033.038q0-.162-.01-.329t-.01-.319l-4.642,3.356a2.87,2.87,0,0,0,.858,1.373,1.984,1.984,0,0,0,1.287.448,1.908,1.908,0,0,0,1-.276,2.382,2.382,0,0,0,.8-.834,4.693,4.693,0,0,0,.529-1.411A9.293,9.293,0,0,0,77.374-66.216Zm4.748,6.206v-2.069H85.3v-8.008l-2.765,1.525-.763-1.9,3.956-2.088H87.68v10.467h2.736v2.069ZM3.842-37.176v-2.069H7.017v-8.008L4.252-45.726l-.763-1.9,3.956-2.088H9.4v10.467h2.736v2.069Zm11.183,0v-2.069H18.2v-8.008l-2.765,1.525-.763-1.9,3.956-2.088h1.954v10.467h2.736v2.069Zm19.963-6.282a10.347,10.347,0,0,1-.334,2.745,5.855,5.855,0,0,1-.977,2.045,4.27,4.27,0,0,1-1.568,1.273,4.883,4.883,0,0,1-2.116.439,4.874,4.874,0,0,1-1.9-.362,3.787,3.787,0,0,1-1.5-1.139,5.62,5.62,0,0,1-.982-1.988,10.446,10.446,0,0,1-.353-2.9,10.209,10.209,0,0,1,.338-2.745,5.968,5.968,0,0,1,.977-2.045,4.21,4.21,0,0,1,1.573-1.273,4.923,4.923,0,0,1,2.116-.439,4.874,4.874,0,0,1,1.9.362,3.768,3.768,0,0,1,1.492,1.134,5.618,5.618,0,0,1,.977,1.983A10.487,10.487,0,0,1,34.988-43.458Zm-7.378.038v.357a3.063,3.063,0,0,0,.019.338L32.3-46.1a3.107,3.107,0,0,0-.882-1.4,1.965,1.965,0,0,0-1.292-.453,1.908,1.908,0,0,0-.991.272,2.345,2.345,0,0,0-.8.834,4.847,4.847,0,0,0-.534,1.411A9.059,9.059,0,0,0,27.609-43.419Zm5.033.038q0-.162-.01-.329t-.01-.319l-4.642,3.356a2.87,2.87,0,0,0,.858,1.373,1.984,1.984,0,0,0,1.287.448,1.907,1.907,0,0,0,1-.276,2.382,2.382,0,0,0,.8-.834,4.693,4.693,0,0,0,.529-1.411A9.292,9.292,0,0,0,32.643-43.381Zm13.528-.076a10.347,10.347,0,0,1-.334,2.745,5.855,5.855,0,0,1-.977,2.045,4.27,4.27,0,0,1-1.568,1.273,4.883,4.883,0,0,1-2.116.439,4.874,4.874,0,0,1-1.9-.362,3.787,3.787,0,0,1-1.5-1.139,5.62,5.62,0,0,1-.982-1.988,10.446,10.446,0,0,1-.353-2.9,10.209,10.209,0,0,1,.338-2.745,5.968,5.968,0,0,1,.977-2.045,4.21,4.21,0,0,1,1.573-1.273,4.923,4.923,0,0,1,2.116-.439,4.874,4.874,0,0,1,1.9.362,3.768,3.768,0,0,1,1.492,1.134,5.618,5.618,0,0,1,.977,1.983A10.487,10.487,0,0,1,46.171-43.458Zm-7.378.038v.357a3.062,3.062,0,0,0,.019.338L43.482-46.1a3.107,3.107,0,0,0-.882-1.4,1.965,1.965,0,0,0-1.292-.453,1.908,1.908,0,0,0-.991.272,2.345,2.345,0,0,0-.8.834,4.847,4.847,0,0,0-.534,1.411A9.059,9.059,0,0,0,38.792-43.419Zm5.033.038q0-.162-.01-.329t-.01-.319l-4.642,3.356a2.87,2.87,0,0,0,.858,1.373,1.984,1.984,0,0,0,1.287.448,1.907,1.907,0,0,0,1-.276,2.382,2.382,0,0,0,.8-.834,4.693,4.693,0,0,0,.529-1.411A9.292,9.292,0,0,0,43.826-43.381Zm13.528-.076a10.347,10.347,0,0,1-.334,2.745,5.855,5.855,0,0,1-.977,2.045,4.27,4.27,0,0,1-1.568,1.273,4.883,4.883,0,0,1-2.116.439,4.874,4.874,0,0,1-1.9-.362,3.787,3.787,0,0,1-1.5-1.139,5.62,5.62,0,0,1-.982-1.988,10.446,10.446,0,0,1-.353-2.9,10.209,10.209,0,0,1,.338-2.745,5.968,5.968,0,0,1,.977-2.045,4.21,4.21,0,0,1,1.573-1.273,4.923,4.923,0,0,1,2.116-.439,4.874,4.874,0,0,1,1.9.362,3.768,3.768,0,0,1,1.492,1.134A5.618,5.618,0,0,1,57-46.365,10.487,10.487,0,0,1,57.354-43.458Zm-7.378.038v.357a3.064,3.064,0,0,0,.019.338L54.665-46.1a3.106,3.106,0,0,0-.882-1.4,1.965,1.965,0,0,0-1.292-.453,1.908,1.908,0,0,0-.991.272,2.345,2.345,0,0,0-.8.834,4.847,4.847,0,0,0-.534,1.411A9.059,9.059,0,0,0,49.975-43.419Zm5.033.038q0-.162-.01-.329t-.01-.319l-4.642,3.356a2.87,2.87,0,0,0,.858,1.373,1.984,1.984,0,0,0,1.287.448,1.907,1.907,0,0,0,1-.276,2.382,2.382,0,0,0,.8-.834,4.693,4.693,0,0,0,.529-1.411A9.292,9.292,0,0,0,55.009-43.381Zm4.748,6.206v-2.069h3.174v-8.008l-2.765,1.525-.763-1.9,3.956-2.088h1.954v10.467H68.05v2.069ZM79.72-43.458a10.347,10.347,0,0,1-.334,2.745,5.855,5.855,0,0,1-.977,2.045,4.27,4.27,0,0,1-1.568,1.273,4.883,4.883,0,0,1-2.116.439,4.874,4.874,0,0,1-1.9-.362,3.787,3.787,0,0,1-1.5-1.139,5.62,5.62,0,0,1-.982-1.988,10.446,10.446,0,0,1-.353-2.9,10.209,10.209,0,0,1,.338-2.745,5.968,5.968,0,0,1,.977-2.045,4.21,4.21,0,0,1,1.573-1.273A4.923,4.923,0,0,1,75-49.845a4.874,4.874,0,0,1,1.9.362,3.768,3.768,0,0,1,1.492,1.134,5.617,5.617,0,0,1,.977,1.983A10.487,10.487,0,0,1,79.72-43.458Zm-7.378.038v.357a3.065,3.065,0,0,0,.019.338L77.031-46.1a3.107,3.107,0,0,0-.882-1.4,1.965,1.965,0,0,0-1.292-.453,1.908,1.908,0,0,0-.991.272,2.345,2.345,0,0,0-.8.834,4.847,4.847,0,0,0-.534,1.411A9.059,9.059,0,0,0,72.341-43.419Zm5.033.038q0-.162-.01-.329t-.01-.319l-4.642,3.356a2.87,2.87,0,0,0,.858,1.373,1.984,1.984,0,0,0,1.287.448,1.907,1.907,0,0,0,1-.276,2.382,2.382,0,0,0,.8-.834,4.693,4.693,0,0,0,.529-1.411A9.293,9.293,0,0,0,77.374-43.381ZM90.9-43.458a10.347,10.347,0,0,1-.334,2.745,5.855,5.855,0,0,1-.977,2.045,4.27,4.27,0,0,1-1.568,1.273,4.883,4.883,0,0,1-2.116.439,4.874,4.874,0,0,1-1.9-.362,3.787,3.787,0,0,1-1.5-1.139,5.62,5.62,0,0,1-.982-1.988,10.446,10.446,0,0,1-.353-2.9,10.21,10.21,0,0,1,.338-2.745,5.968,5.968,0,0,1,.977-2.045,4.21,4.21,0,0,1,1.573-1.273,4.923,4.923,0,0,1,2.116-.439,4.874,4.874,0,0,1,1.9.362,3.768,3.768,0,0,1,1.492,1.134,5.617,5.617,0,0,1,.977,1.983A10.487,10.487,0,0,1,90.9-43.458Zm-7.378.038v.357a3.067,3.067,0,0,0,.019.338L88.214-46.1a3.106,3.106,0,0,0-.882-1.4,1.965,1.965,0,0,0-1.292-.453,1.908,1.908,0,0,0-.991.272,2.345,2.345,0,0,0-.8.834,4.847,4.847,0,0,0-.534,1.411A9.059,9.059,0,0,0,83.524-43.419Zm5.033.038q0-.162-.01-.329t-.01-.319L83.9-40.674a2.87,2.87,0,0,0,.858,1.373,1.984,1.984,0,0,0,1.287.448,1.907,1.907,0,0,0,1-.276,2.382,2.382,0,0,0,.8-.834,4.693,4.693,0,0,0,.529-1.411A9.293,9.293,0,0,0,88.557-43.381ZM3.842-14.34v-2.069H7.017v-8.008L4.252-22.891l-.763-1.9,3.956-2.088H9.4v10.467h2.736v2.069ZM23.8-20.623a10.347,10.347,0,0,1-.334,2.745,5.855,5.855,0,0,1-.977,2.045,4.27,4.27,0,0,1-1.568,1.273,4.883,4.883,0,0,1-2.116.439,4.874,4.874,0,0,1-1.9-.362,3.788,3.788,0,0,1-1.5-1.139,5.62,5.62,0,0,1-.982-1.988,10.446,10.446,0,0,1-.353-2.9,10.209,10.209,0,0,1,.338-2.745A5.968,5.968,0,0,1,15.4-25.3a4.21,4.21,0,0,1,1.573-1.273,4.923,4.923,0,0,1,2.116-.439,4.874,4.874,0,0,1,1.9.362,3.768,3.768,0,0,1,1.492,1.134,5.618,5.618,0,0,1,.977,1.983A10.487,10.487,0,0,1,23.8-20.623Zm-7.378.038v.357a3.063,3.063,0,0,0,.019.338l4.671-3.375a3.107,3.107,0,0,0-.882-1.4,1.965,1.965,0,0,0-1.292-.453,1.908,1.908,0,0,0-.991.272,2.345,2.345,0,0,0-.8.834,4.847,4.847,0,0,0-.534,1.411A9.059,9.059,0,0,0,16.426-20.584Zm5.033.038q0-.162-.01-.329t-.01-.319L16.8-17.839a2.87,2.87,0,0,0,.858,1.373,1.984,1.984,0,0,0,1.287.448,1.907,1.907,0,0,0,1-.276,2.382,2.382,0,0,0,.8-.834,4.693,4.693,0,0,0,.529-1.411A9.293,9.293,0,0,0,21.46-20.546Zm4.748,6.206v-2.069h3.174v-8.008l-2.765,1.525-.763-1.9,3.956-2.088h1.954v10.467H34.5v2.069Zm19.963-6.282a10.347,10.347,0,0,1-.334,2.745,5.855,5.855,0,0,1-.977,2.045,4.27,4.27,0,0,1-1.568,1.273,4.883,4.883,0,0,1-2.116.439,4.874,4.874,0,0,1-1.9-.362,3.788,3.788,0,0,1-1.5-1.139A5.62,5.62,0,0,1,36.8-17.61a10.446,10.446,0,0,1-.353-2.9,10.209,10.209,0,0,1,.338-2.745,5.968,5.968,0,0,1,.977-2.045,4.21,4.21,0,0,1,1.573-1.273,4.923,4.923,0,0,1,2.116-.439,4.874,4.874,0,0,1,1.9.362,3.768,3.768,0,0,1,1.492,1.134,5.618,5.618,0,0,1,.977,1.983A10.487,10.487,0,0,1,46.171-20.623Zm-7.378.038v.357a3.062,3.062,0,0,0,.019.338l4.671-3.375a3.107,3.107,0,0,0-.882-1.4,1.965,1.965,0,0,0-1.292-.453,1.908,1.908,0,0,0-.991.272,2.345,2.345,0,0,0-.8.834,4.847,4.847,0,0,0-.534,1.411A9.059,9.059,0,0,0,38.792-20.584Zm5.033.038q0-.162-.01-.329t-.01-.319l-4.642,3.356a2.87,2.87,0,0,0,.858,1.373,1.984,1.984,0,0,0,1.287.448,1.907,1.907,0,0,0,1-.276,2.382,2.382,0,0,0,.8-.834,4.693,4.693,0,0,0,.529-1.411A9.292,9.292,0,0,0,43.826-20.546Zm13.528-.076a10.347,10.347,0,0,1-.334,2.745,5.855,5.855,0,0,1-.977,2.045,4.27,4.27,0,0,1-1.568,1.273,4.883,4.883,0,0,1-2.116.439,4.874,4.874,0,0,1-1.9-.362,3.788,3.788,0,0,1-1.5-1.139,5.62,5.62,0,0,1-.982-1.988,10.446,10.446,0,0,1-.353-2.9,10.209,10.209,0,0,1,.338-2.745,5.968,5.968,0,0,1,.977-2.045,4.21,4.21,0,0,1,1.573-1.273,4.923,4.923,0,0,1,2.116-.439,4.874,4.874,0,0,1,1.9.362,3.768,3.768,0,0,1,1.492,1.134A5.618,5.618,0,0,1,57-23.53,10.487,10.487,0,0,1,57.354-20.623Zm-7.378.038v.357a3.064,3.064,0,0,0,.019.338l4.671-3.375a3.106,3.106,0,0,0-.882-1.4,1.965,1.965,0,0,0-1.292-.453,1.908,1.908,0,0,0-.991.272,2.345,2.345,0,0,0-.8.834,4.847,4.847,0,0,0-.534,1.411A9.059,9.059,0,0,0,49.975-20.584Zm5.033.038q0-.162-.01-.329t-.01-.319l-4.642,3.356a2.87,2.87,0,0,0,.858,1.373,1.984,1.984,0,0,0,1.287.448,1.907,1.907,0,0,0,1-.276,2.382,2.382,0,0,0,.8-.834,4.693,4.693,0,0,0,.529-1.411A9.292,9.292,0,0,0,55.009-20.546Zm13.528-.076a10.347,10.347,0,0,1-.334,2.745,5.855,5.855,0,0,1-.977,2.045,4.27,4.27,0,0,1-1.568,1.273,4.883,4.883,0,0,1-2.116.439,4.874,4.874,0,0,1-1.9-.362,3.788,3.788,0,0,1-1.5-1.139,5.62,5.62,0,0,1-.982-1.988,10.446,10.446,0,0,1-.353-2.9,10.209,10.209,0,0,1,.338-2.745,5.968,5.968,0,0,1,.977-2.045A4.21,4.21,0,0,1,61.7-26.571a4.923,4.923,0,0,1,2.116-.439,4.874,4.874,0,0,1,1.9.362,3.768,3.768,0,0,1,1.492,1.134,5.618,5.618,0,0,1,.977,1.983A10.487,10.487,0,0,1,68.537-20.623Zm-7.378.038v.357a3.063,3.063,0,0,0,.019.338l4.671-3.375a3.106,3.106,0,0,0-.882-1.4,1.965,1.965,0,0,0-1.292-.453,1.908,1.908,0,0,0-.991.272,2.345,2.345,0,0,0-.8.834,4.847,4.847,0,0,0-.534,1.411A9.059,9.059,0,0,0,61.158-20.584Zm5.033.038q0-.162-.01-.329t-.01-.319L61.53-17.839a2.87,2.87,0,0,0,.858,1.373,1.984,1.984,0,0,0,1.287.448,1.907,1.907,0,0,0,1-.276,2.382,2.382,0,0,0,.8-.834A4.693,4.693,0,0,0,66-18.54,9.293,9.293,0,0,0,66.192-20.546ZM70.94-14.34v-2.069h3.174v-8.008L71.35-22.891l-.763-1.9,3.956-2.088H76.5v10.467h2.736v2.069ZM90.9-20.623a10.347,10.347,0,0,1-.334,2.745,5.855,5.855,0,0,1-.977,2.045,4.27,4.27,0,0,1-1.568,1.273,4.883,4.883,0,0,1-2.116.439,4.874,4.874,0,0,1-1.9-.362,3.787,3.787,0,0,1-1.5-1.139,5.62,5.62,0,0,1-.982-1.988,10.446,10.446,0,0,1-.353-2.9,10.21,10.21,0,0,1,.338-2.745,5.968,5.968,0,0,1,.977-2.045,4.21,4.21,0,0,1,1.573-1.273,4.923,4.923,0,0,1,2.116-.439,4.874,4.874,0,0,1,1.9.362,3.768,3.768,0,0,1,1.492,1.134,5.617,5.617,0,0,1,.977,1.983A10.487,10.487,0,0,1,90.9-20.623Zm-7.378.038v.357a3.067,3.067,0,0,0,.019.338l4.671-3.375a3.106,3.106,0,0,0-.882-1.4,1.965,1.965,0,0,0-1.292-.453,1.908,1.908,0,0,0-.991.272,2.345,2.345,0,0,0-.8.834A4.847,4.847,0,0,0,83.72-22.6,9.059,9.059,0,0,0,83.524-20.584Zm5.033.038q0-.162-.01-.329t-.01-.319L83.9-17.839a2.87,2.87,0,0,0,.858,1.373,1.984,1.984,0,0,0,1.287.448,1.907,1.907,0,0,0,1-.276,2.382,2.382,0,0,0,.8-.834,4.693,4.693,0,0,0,.529-1.411A9.293,9.293,0,0,0,88.557-20.546ZM3.842,8.495V6.426H7.017V-1.581L4.252-.056l-.763-1.9L7.446-4.041H9.4V6.426h2.736V8.495ZM23.8,2.213a10.347,10.347,0,0,1-.334,2.745A5.855,5.855,0,0,1,22.494,7a4.27,4.27,0,0,1-1.568,1.273,5.241,5.241,0,0,1-4.013.076,3.788,3.788,0,0,1-1.5-1.139,5.62,5.62,0,0,1-.982-1.988,10.446,10.446,0,0,1-.353-2.9A10.21,10.21,0,0,1,14.42-.418,5.968,5.968,0,0,1,15.4-2.463,4.21,4.21,0,0,1,16.97-3.736a4.923,4.923,0,0,1,2.116-.439,4.875,4.875,0,0,1,1.9.362,3.768,3.768,0,0,1,1.492,1.134,5.618,5.618,0,0,1,.977,1.983A10.487,10.487,0,0,1,23.8,2.213Zm-7.378.038v.357a3.063,3.063,0,0,0,.019.338L21.117-.428a3.107,3.107,0,0,0-.882-1.4,1.965,1.965,0,0,0-1.292-.453,1.908,1.908,0,0,0-.991.272,2.345,2.345,0,0,0-.8.834A4.847,4.847,0,0,0,16.622.239,9.059,9.059,0,0,0,16.426,2.251Zm5.033.038q0-.162-.01-.329t-.01-.319L16.8,5a2.87,2.87,0,0,0,.858,1.373,1.984,1.984,0,0,0,1.287.448,1.907,1.907,0,0,0,1-.276,2.382,2.382,0,0,0,.8-.834A4.693,4.693,0,0,0,21.269,4.3,9.293,9.293,0,0,0,21.46,2.289Zm13.528-.076a10.347,10.347,0,0,1-.334,2.745A5.855,5.855,0,0,1,33.677,7a4.27,4.27,0,0,1-1.568,1.273,5.241,5.241,0,0,1-4.013.076,3.788,3.788,0,0,1-1.5-1.139,5.62,5.62,0,0,1-.982-1.988,10.446,10.446,0,0,1-.353-2.9A10.21,10.21,0,0,1,25.6-.418a5.968,5.968,0,0,1,.977-2.045,4.21,4.21,0,0,1,1.573-1.273,4.923,4.923,0,0,1,2.116-.439,4.875,4.875,0,0,1,1.9.362,3.768,3.768,0,0,1,1.492,1.134,5.618,5.618,0,0,1,.977,1.983A10.487,10.487,0,0,1,34.988,2.213Zm-7.378.038v.357a3.063,3.063,0,0,0,.019.338L32.3-.428a3.107,3.107,0,0,0-.882-1.4,1.965,1.965,0,0,0-1.292-.453,1.908,1.908,0,0,0-.991.272,2.345,2.345,0,0,0-.8.834A4.847,4.847,0,0,0,27.8.239,9.059,9.059,0,0,0,27.609,2.251Zm5.033.038q0-.162-.01-.329t-.01-.319L27.981,5a2.87,2.87,0,0,0,.858,1.373,1.984,1.984,0,0,0,1.287.448,1.907,1.907,0,0,0,1-.276,2.382,2.382,0,0,0,.8-.834A4.693,4.693,0,0,0,32.452,4.3,9.292,9.292,0,0,0,32.643,2.289Zm4.748,6.206V6.426h3.174V-1.581L37.8-.056l-.763-1.9,3.956-2.088h1.954V6.426h2.736V8.495ZM57.354,2.213a10.347,10.347,0,0,1-.334,2.745A5.855,5.855,0,0,1,56.043,7a4.27,4.27,0,0,1-1.568,1.273,5.241,5.241,0,0,1-4.013.076,3.788,3.788,0,0,1-1.5-1.139,5.62,5.62,0,0,1-.982-1.988,10.446,10.446,0,0,1-.353-2.9,10.21,10.21,0,0,1,.338-2.745,5.968,5.968,0,0,1,.977-2.045,4.21,4.21,0,0,1,1.573-1.273,4.923,4.923,0,0,1,2.116-.439,4.875,4.875,0,0,1,1.9.362,3.768,3.768,0,0,1,1.492,1.134A5.618,5.618,0,0,1,57-.695,10.487,10.487,0,0,1,57.354,2.213Zm-7.378.038v.357a3.064,3.064,0,0,0,.019.338L54.665-.428a3.107,3.107,0,0,0-.882-1.4,1.965,1.965,0,0,0-1.292-.453,1.908,1.908,0,0,0-.991.272,2.345,2.345,0,0,0-.8.834A4.847,4.847,0,0,0,50.171.239,9.059,9.059,0,0,0,49.975,2.251Zm5.033.038q0-.162-.01-.329t-.01-.319L50.347,5a2.87,2.87,0,0,0,.858,1.373,1.984,1.984,0,0,0,1.287.448,1.907,1.907,0,0,0,1-.276,2.382,2.382,0,0,0,.8-.834A4.693,4.693,0,0,0,54.818,4.3,9.292,9.292,0,0,0,55.009,2.289Zm13.528-.076A10.347,10.347,0,0,1,68.2,4.958,5.855,5.855,0,0,1,67.226,7a4.27,4.27,0,0,1-1.568,1.273,5.241,5.241,0,0,1-4.013.076,3.788,3.788,0,0,1-1.5-1.139,5.62,5.62,0,0,1-.982-1.988,10.446,10.446,0,0,1-.353-2.9,10.21,10.21,0,0,1,.338-2.745,5.968,5.968,0,0,1,.977-2.045A4.21,4.21,0,0,1,61.7-3.736a4.923,4.923,0,0,1,2.116-.439,4.875,4.875,0,0,1,1.9.362,3.768,3.768,0,0,1,1.492,1.134,5.618,5.618,0,0,1,.977,1.983A10.487,10.487,0,0,1,68.537,2.213Zm-7.378.038v.357a3.063,3.063,0,0,0,.019.338L65.848-.428a3.106,3.106,0,0,0-.882-1.4,1.965,1.965,0,0,0-1.292-.453,1.908,1.908,0,0,0-.991.272,2.345,2.345,0,0,0-.8.834A4.847,4.847,0,0,0,61.354.239,9.059,9.059,0,0,0,61.158,2.251Zm5.033.038q0-.162-.01-.329t-.01-.319L61.53,5a2.87,2.87,0,0,0,.858,1.373,1.984,1.984,0,0,0,1.287.448,1.907,1.907,0,0,0,1-.276,2.382,2.382,0,0,0,.8-.834A4.693,4.693,0,0,0,66,4.3,9.293,9.293,0,0,0,66.192,2.289ZM79.72,2.213a10.347,10.347,0,0,1-.334,2.745A5.855,5.855,0,0,1,78.409,7a4.27,4.27,0,0,1-1.568,1.273,5.241,5.241,0,0,1-4.013.076,3.788,3.788,0,0,1-1.5-1.139,5.62,5.62,0,0,1-.982-1.988A10.446,10.446,0,0,1,70,2.327a10.209,10.209,0,0,1,.338-2.745,5.968,5.968,0,0,1,.977-2.045,4.21,4.21,0,0,1,1.573-1.273A4.923,4.923,0,0,1,75-4.174a4.875,4.875,0,0,1,1.9.362A3.768,3.768,0,0,1,78.39-2.678a5.617,5.617,0,0,1,.977,1.983A10.487,10.487,0,0,1,79.72,2.213Zm-7.378.038v.357a3.065,3.065,0,0,0,.019.338L77.031-.428a3.107,3.107,0,0,0-.882-1.4,1.965,1.965,0,0,0-1.292-.453,1.908,1.908,0,0,0-.991.272,2.345,2.345,0,0,0-.8.834A4.847,4.847,0,0,0,72.537.239,9.059,9.059,0,0,0,72.341,2.251Zm5.033.038q0-.162-.01-.329t-.01-.319L72.713,5a2.87,2.87,0,0,0,.858,1.373,1.984,1.984,0,0,0,1.287.448,1.907,1.907,0,0,0,1-.276,2.382,2.382,0,0,0,.8-.834A4.693,4.693,0,0,0,77.184,4.3,9.293,9.293,0,0,0,77.374,2.289Zm4.748,6.206V6.426H85.3V-1.581L82.533-.056l-.763-1.9,3.956-2.088H87.68V6.426h2.736V8.495Z" transform="translate(-2.898 72.68)" opacity="0.5" fill="url(#linear-gradient)"/>
</svg>
